<svg width="23" height="13" viewBox="0 0 23 13" fill="none" xmlns="http://www.w3.org/2000/svg">
<path opacity="0.3" d="M4.79167 9.28571V6.5H7.66667V4.64286H4.79167V1.85714H2.875V4.64286H0V6.5H2.875V9.28571H4.79167ZM11.5 8.125C9.2575 8.125 4.79167 9.21143 4.79167 11.375V13H18.2083V11.375C18.2083 9.21143 13.7425 8.125 11.5 8.125ZM7.03417 11.1429C7.83917 10.6043 9.78458 9.98214 11.5 9.98214C13.2154 9.98214 15.1608 10.6043 15.9658 11.1429H7.03417ZM11.5 6.5C13.3496 6.5 14.8542 5.04214 14.8542 3.25C14.8542 1.45786 13.3496 0 11.5 0C9.65042 0 8.14583 1.45786 8.14583 3.25C8.14583 5.04214 9.65042 6.5 11.5 6.5ZM11.5 1.85714C12.2954 1.85714 12.9375 2.47929 12.9375 3.25C12.9375 4.02071 12.2954 4.64286 11.5 4.64286C10.7046 4.64286 10.0625 4.02071 10.0625 3.25C10.0625 2.47929 10.7046 1.85714 11.5 1.85714ZM16.2917 6.5C18.1412 6.5 19.6458 5.04214 19.6458 3.25C19.6458 1.45786 18.1412 0 16.2917 0C16.0617 0 15.8317 0.0185716 15.6113 0.0650002C16.365 0.964992 16.7748 2.08963 16.7713 3.24867C16.7678 4.40771 16.3512 5.53 15.5921 6.42571C15.8221 6.47214 16.0521 6.5 16.2917 6.5ZM18.515 8.37571C19.4733 9.12786 20.125 10.1121 20.125 11.375V13H23V11.375C23 9.80571 20.6617 8.81214 18.515 8.37571Z" fill="#474A5C"/>
</svg>
