<svg width="30" height="30" viewBox="0 0 30 30" fill="none" xmlns="http://www.w3.org/2000/svg">
<circle opacity="0.4" cx="15" cy="15" r="15" fill="#8593AE"/>
<mask id="mask0" mask-type="alpha" maskUnits="userSpaceOnUse" x="0" y="0" width="30" height="30">
<circle cx="15" cy="15" r="15" fill="#F4F5FA"/>
</mask>
<g mask="url(#mask0)">
<path d="M22.0964 22.6931C18.7311 21.4671 17.6553 20.4323 17.6553 18.2165C17.6553 16.8867 18.758 16.0249 19.1338 14.8853C19.5097 13.7456 19.7272 12.3963 19.9079 11.4148C20.0887 10.4333 20.1605 10.0536 20.2588 9.00786C20.379 7.70269 19.5052 4.33325 14.8333 4.33325C10.1628 4.33325 9.28632 7.70269 9.4092 9.00786C9.5075 10.0536 9.57971 10.4333 9.76006 11.4148C9.94043 12.3963 10.1558 13.7455 10.5314 14.8853C10.907 16.025 12.0113 16.8867 12.0113 18.2165C12.0113 20.4323 10.9355 21.4671 7.57016 22.6931C4.1926 23.9218 2 25.1335 2 25.9895V29.9999H27.6667V25.9895C27.6667 25.1349 25.4727 23.9232 22.0964 22.6931Z" fill="white"/>
</g>
</svg>
