<svg width="21" height="24" viewBox="0 0 21 24" fill="none" xmlns="http://www.w3.org/2000/svg">
<path fill-rule="evenodd" clip-rule="evenodd" d="M18.5294 10.2V16.8L21 19.2V20.4H0V19.2L2.47059 16.8V10.2C2.47059 6.516 5.10176 3.432 8.64706 2.616V1.8C8.64706 1.32261 8.84228 0.864773 9.18977 0.527208C9.53727 0.189642 10.0086 0 10.5 0C10.9914 0 11.4627 0.189642 11.8102 0.527208C12.1577 0.864773 12.3529 1.32261 12.3529 1.8V2.616C13.3413 2.84427 14.26 3.25002 15.0707 3.79675C15.0243 4.02393 15 4.25912 15 4.5C15 6.33195 16.4075 7.83517 18.2 7.98732C18.4143 8.68865 18.5294 9.43126 18.5294 10.2ZM4.94118 10.2V18H16.0588V10.2C16.0588 7.2 13.5882 4.8 10.5 4.8C7.41176 4.8 4.94118 7.2 4.94118 10.2Z" fill="#474A5C"/>
<path d="M12.247 23.2971C11.7836 23.7471 11.1552 24 10.5 24C9.84476 24 9.21636 23.7471 8.75303 23.2971C8.28971 22.847 8.02941 22.2365 8.02941 21.6H12.9706C12.9706 22.2365 12.7103 22.847 12.247 23.2971Z" fill="#474A5C"/>
<circle cx="18.5" cy="4.5" r="2.5" fill="#FF7500"/>
</svg>
