<svg width="304" height="329" viewBox="0 0 304 329" fill="none" xmlns="http://www.w3.org/2000/svg">
<g clip-path="url(#clip0)">
<path opacity="0.1" d="M268.52 45.0593C249.812 60.9464 225.546 59.9186 204.281 51.6513C183.017 43.384 163.483 28.6704 142.765 18.2099C125.396 9.44079 107.169 3.68242 88.7194 1.12089C62.3135 -2.54536 32.8253 1.93022 14.4286 27.6021C-6.05939 56.2038 -4.48588 107.79 17.6646 134.029C28.9381 147.383 43.6983 153.938 56.5696 164.379C69.4408 174.819 81.3615 192.122 80.2653 212.25C79.25 230.865 67.4507 245.178 55.2388 254.149C45.8017 261.081 34.1804 268.652 33.0438 283.014C31.9435 296.906 41.7163 307.796 51.0481 313.987C81.4909 334.184 119.004 333.989 149.342 313.477C160.158 306.157 170.093 296.42 181.439 290.723C211.231 275.75 244.06 290.82 275.607 296.335C302.304 301.001 329.685 298.581 355.698 289.262C371.32 283.665 387.003 275.099 397.977 259.171C405.893 247.679 410.824 233.131 415.451 218.765C420.386 203.45 425.131 188.024 429.686 172.488C432.416 163.161 435.106 153.655 435.814 143.68C437.092 125.6 431.704 107.726 424.367 92.4697C406.945 56.2402 377.602 30.7666 345.825 24.296C314.047 17.8254 280.429 30.4631 255.783 58.1178" fill="#FF7500"/>
<path opacity="0.1" d="M198.028 219.688C248.735 219.688 289.841 217.811 289.841 215.496C289.841 213.18 248.735 211.303 198.028 211.303C147.32 211.303 106.214 213.18 106.214 215.496C106.214 217.811 147.32 219.688 198.028 219.688Z" fill="#FF7500"/>
<path d="M194.945 198.184C149.047 198.184 111.707 160.83 111.707 114.913C111.707 68.9953 149.034 31.6407 194.945 31.6407C240.856 31.6407 278.172 68.9993 278.172 114.913C278.172 160.826 240.828 198.184 194.945 198.184ZM194.945 32.4501C149.492 32.4501 112.516 69.4445 112.516 114.913C112.516 160.381 149.479 197.375 194.945 197.375C240.411 197.375 277.375 160.381 277.375 114.913C277.375 69.4445 240.383 32.4501 194.945 32.4501Z" fill="white"/>
<path d="M194.945 179.497C159.349 179.497 130.383 150.523 130.383 114.912C130.383 79.3019 159.349 50.328 194.945 50.328C230.541 50.328 259.504 79.3019 259.504 114.912C259.504 150.523 230.541 179.497 194.945 179.497ZM194.945 51.1373C159.79 51.1373 131.192 79.7471 131.192 114.912C131.192 150.078 159.79 178.687 194.945 178.687C230.101 178.687 258.695 150.078 258.695 114.912C258.695 79.7471 230.084 51.1373 194.945 51.1373Z" fill="white"/>
<path d="M194.945 159.426C186.145 159.426 177.542 156.815 170.225 151.924C162.908 147.033 157.205 140.081 153.837 131.947C150.469 123.813 149.588 114.863 151.305 106.228C153.022 97.5937 157.26 89.6623 163.483 83.437C169.705 77.2117 177.634 72.9723 186.265 71.2547C194.896 69.5372 203.843 70.4187 211.973 73.7878C220.103 77.1569 227.053 82.8622 231.942 90.1823C236.831 97.5025 239.441 106.109 239.441 114.912C239.427 126.714 234.734 138.028 226.393 146.373C218.051 154.717 206.742 159.412 194.945 159.426ZM194.945 71.2088C186.305 71.2088 177.859 73.7719 170.675 78.5742C163.49 83.3764 157.891 90.202 154.585 98.1878C151.278 106.174 150.413 114.961 152.099 123.439C153.784 131.916 157.945 139.704 164.055 145.816C170.164 151.928 177.948 156.09 186.423 157.776C194.897 159.463 203.681 158.597 211.663 155.289C219.646 151.982 226.469 146.38 231.269 139.193C236.069 132.006 238.632 123.556 238.632 114.912C238.618 103.326 234.011 92.2177 225.821 84.0247C217.631 75.8316 206.527 71.2227 194.945 71.2088Z" fill="white"/>
<path opacity="0.1" d="M72.2238 269.348C90.9983 269.348 106.218 266.85 106.218 263.768C106.218 260.686 90.9983 258.188 72.2238 258.188C53.4493 258.188 38.2295 260.686 38.2295 263.768C38.2295 266.85 53.4493 269.348 72.2238 269.348Z" fill="#FF7500"/>
<g opacity="0.1">
<path opacity="0.1" d="M131.815 109.146H28.1049C26.6686 109.15 25.2924 109.723 24.2769 110.739C23.2613 111.755 22.6888 113.132 22.6846 114.568V180.124C22.6888 181.561 23.2613 182.938 24.2769 183.954C25.2924 184.97 26.6686 185.542 28.1049 185.547H109.462C109.462 185.547 111.57 196.74 104.645 197.945C104.645 197.945 120.153 199.058 117.443 185.547H131.815C133.251 185.542 134.627 184.97 135.643 183.954C136.659 182.938 137.231 181.561 137.235 180.124V114.568C137.231 113.132 136.659 111.755 135.643 110.739C134.627 109.723 133.251 109.15 131.815 109.146Z" fill="black"/>
<g opacity="0.2">
<path opacity="0.2" d="M119.672 126.547H40.2437C38.977 126.547 37.9502 127.574 37.9502 128.841V129.375C37.9502 130.642 38.977 131.67 40.2437 131.67H119.672C120.938 131.67 121.965 130.642 121.965 129.375V128.841C121.965 127.574 120.938 126.547 119.672 126.547Z" fill="black"/>
<path opacity="0.2" d="M119.672 149.442H40.2437C38.977 149.442 37.9502 150.47 37.9502 151.737V152.271C37.9502 153.538 38.977 154.565 40.2437 154.565H119.672C120.938 154.565 121.965 153.538 121.965 152.271V151.737C121.965 150.47 120.938 149.442 119.672 149.442Z" fill="black"/>
<path opacity="0.2" d="M106.113 160.886H40.2437C38.977 160.886 37.9502 161.914 37.9502 163.181V163.715C37.9502 164.982 38.977 166.009 40.2437 166.009H106.113C107.379 166.009 108.406 164.982 108.406 163.715V163.181C108.406 161.914 107.379 160.886 106.113 160.886Z" fill="black"/>
<path opacity="0.2" d="M72.0861 137.995H40.2437C38.977 137.995 37.9502 139.022 37.9502 140.289V140.823C37.9502 142.09 38.977 143.118 40.2437 143.118H72.0861C73.3528 143.118 74.3796 142.09 74.3796 140.823V140.289C74.3796 139.022 73.3528 137.995 72.0861 137.995Z" fill="black"/>
</g>
</g>
<path d="M132.721 108.693H29.0072C27.571 108.697 26.1948 109.27 25.1792 110.286C24.1636 111.302 23.5912 112.678 23.5869 114.115V179.671C23.5912 181.108 24.1636 182.484 25.1792 183.5C26.1948 184.516 27.571 185.089 29.0072 185.093H110.365C110.365 185.093 112.476 196.286 105.547 197.488C105.547 197.488 121.056 198.601 118.345 185.093H132.721C134.157 185.089 135.533 184.516 136.548 183.5C137.563 182.484 138.134 181.107 138.138 179.671V114.115C138.134 112.679 137.563 111.302 136.548 110.286C135.533 109.27 134.157 108.697 132.721 108.693Z" fill="white"/>
<g opacity="0.2">
<path opacity="0.2" d="M120.578 126.093H41.15C39.8833 126.093 38.8564 127.121 38.8564 128.388V128.922C38.8564 130.189 39.8833 131.216 41.15 131.216H120.578C121.845 131.216 122.871 130.189 122.871 128.922V128.388C122.871 127.121 121.845 126.093 120.578 126.093Z" fill="#FF7500"/>
<path opacity="0.2" d="M120.578 148.989H41.15C39.8833 148.989 38.8564 150.016 38.8564 151.283V151.818C38.8564 153.085 39.8833 154.112 41.15 154.112H120.578C121.845 154.112 122.871 153.085 122.871 151.818V151.283C122.871 150.016 121.845 148.989 120.578 148.989Z" fill="#FF7500"/>
<path opacity="0.2" d="M107.019 160.437H41.15C39.8833 160.437 38.8564 161.464 38.8564 162.731V163.266C38.8564 164.533 39.8833 165.56 41.15 165.56H107.019C108.286 165.56 109.313 164.533 109.313 163.266V162.731C109.313 161.464 108.286 160.437 107.019 160.437Z" fill="#FF7500"/>
<path opacity="0.2" d="M72.9923 137.541H41.15C39.8833 137.541 38.8564 138.569 38.8564 139.836V140.37C38.8564 141.637 39.8833 142.664 41.15 142.664H72.9923C74.259 142.664 75.2858 141.637 75.2858 140.37V139.836C75.2858 138.569 74.259 137.541 72.9923 137.541Z" fill="#FF7500"/>
</g>
<path d="M94.2245 107.653L88.4765 119.882C88.4765 119.882 87.627 122.176 87.081 122.601C86.5349 123.026 84.12 130.29 84.12 130.29L77.9595 139.815L77.555 140.463L75.128 139.795L73.4331 133.454L73.5383 131.613V131.382C73.5383 131.382 77.3527 127.392 78.1981 127.089C78.1981 127.089 78.8615 127.166 80.1357 124.074C81.4099 120.982 82.5627 120.311 82.5627 120.311L83.2261 118.069L90.3696 106.694C90.3696 106.694 96.3562 98.1027 97.9863 101.915C99.6165 105.727 94.2245 107.653 94.2245 107.653Z" fill="#FFD2C6"/>
<path d="M70.3587 194.514C70.3393 194.722 70.2729 194.922 70.1646 195.101C69.5012 196.068 65.7515 215.856 65.7515 215.856C66.0508 217.191 65.2094 219.854 64.6593 221.064C64.1092 222.274 62.9038 228.566 62.9038 228.566C62.9038 228.566 62.6044 242.123 61.8197 244.239C61.035 246.355 62.0705 250.896 62.0705 250.896C61.9936 252.984 63.2476 255.189 63.9919 256.314C64.0485 256.387 64.093 256.46 64.1375 256.521C64.3802 256.869 64.542 257.067 64.542 257.067C64.745 257.473 65.0334 257.831 65.3874 258.115C65.44 258.159 65.4966 258.2 65.5573 258.244C66.5847 258.935 67.7356 259.422 68.947 259.677L69.0643 259.701C69.5497 259.81 69.8733 259.851 69.8733 259.851L70.1727 261.47L66.969 262.133L60.861 262.538C60.861 262.538 53.6609 263.084 55.2951 259.875C55.41 259.656 55.5087 259.429 55.5904 259.195C55.6511 259.042 55.7077 258.88 55.7562 258.718C56.7392 255.634 56.0758 251.887 56.0758 251.887L54.6681 240.981C52.3746 230.816 56.4803 219.498 56.4803 219.498C56.4803 219.498 56.1203 218.591 56.9091 216.293C57.6978 213.994 56.9091 208.973 56.9091 208.973C56.9091 208.973 56.5046 202.498 55.9423 199.289C55.7277 197.942 55.6545 196.576 55.7239 195.214C55.7497 194.414 55.8227 193.617 55.9423 192.826L69.7358 190.997C69.7358 190.997 70.5124 193.231 70.3587 194.514Z" fill="#FFD2C6"/>
<path opacity="0.1" d="M70.1565 261.49L66.9528 262.154L60.8449 262.558C60.8449 262.558 53.6448 263.105 55.2789 259.896C55.3938 259.677 55.4925 259.449 55.5742 259.216C55.6349 259.062 55.6915 258.9 55.7401 258.738C56.9864 258.777 58.2171 259.026 59.3806 259.475C61.4314 260.284 62.9766 258.2 62.9766 258.2L63.9717 256.298L64.1173 256.023C64.36 256.371 64.5218 256.569 64.5218 256.569C64.7601 257.037 65.1085 257.44 65.5371 257.743L65.3672 258.099L64.4004 260.122C64.4004 260.122 65.6382 260.248 67.3331 260.527C67.6601 260.616 68.0088 260.574 68.306 260.411C68.6031 260.248 68.8256 259.976 68.9268 259.653L69.0441 259.677C69.5295 259.786 69.8531 259.827 69.8531 259.827L70.1565 261.49Z" fill="black"/>
<path d="M73.1216 262.999C72.8789 264.088 66.1359 264.424 66.1359 264.424C66.1359 264.424 62.3821 264.059 61.3304 264.937C60.2787 265.816 57.1802 265.605 57.0589 265.605C56.9375 265.605 55.3074 265.54 54.6683 262.611C54.0494 259.754 55.5015 259.256 55.5743 259.232C56.8797 259.25 58.1715 259.5 59.3888 259.972C61.4396 260.782 62.9848 258.702 62.9848 258.702L64.1255 256.521C64.3682 256.869 64.53 257.067 64.53 257.067C64.7664 257.537 65.1151 257.941 65.5453 258.244L64.4087 260.636C64.4087 260.636 65.6464 260.761 67.3413 261.041C68.6964 261.259 68.9917 260.154 69.0523 259.709C69.0564 259.649 69.0564 259.588 69.0523 259.527C69.0523 259.527 70.1081 259.831 71.4065 260.195C71.9918 260.362 72.493 260.743 72.8107 261.262C73.1284 261.782 73.2393 262.402 73.1216 262.999Z" fill="#2D293D"/>
<path d="M85.8272 208.936C85.6654 209.903 85.4996 212.408 85.4996 212.408C86.0659 214.504 84.6137 219.486 84.6137 219.486L83.8897 222.318C84.2133 225.96 81.8955 234.827 81.8955 234.827C81.8955 234.827 80.3422 243.057 79.5332 246.61C79.0504 248.582 79.1918 250.655 79.9377 252.543C79.9781 252.64 80.0024 252.688 80.0024 252.688C80.0024 252.757 80.0307 252.822 80.0509 252.887C80.0712 252.951 80.1035 253.081 80.1359 253.174C80.3215 253.67 80.5956 254.128 80.9449 254.526C81.0777 254.685 81.2224 254.834 81.3777 254.971L81.402 254.995C82.1614 255.668 83.0319 256.203 83.9746 256.577L84.3791 256.739C84.7988 256.898 85.2268 257.033 85.6614 257.144C85.7093 257.157 85.7579 257.168 85.807 257.176L85.4794 259.078L81.2078 257.986L75.4841 256.128L72.6526 254.509C72.6526 254.509 72.685 254.356 72.7416 254.06C72.7416 254.06 72.7416 254.028 72.7416 254.012C72.7659 253.886 72.7902 253.737 72.8266 253.567C73.3079 251.098 74.4041 244.097 73.854 238.958C73.1704 232.585 75.8239 223.787 76.4711 221.691C76.8544 220.493 77.0188 219.236 76.9565 217.98C75.9048 216.443 75.6621 210.316 75.6621 210.316C75.6621 210.316 73.7286 206.358 72.1268 202.162C71.5983 200.792 71.212 199.371 70.9739 197.921C70.7874 196.899 70.7088 195.86 70.7393 194.821C70.7393 194.821 83.7319 182.961 85.1558 194.445C85.2043 194.85 85.2488 195.206 85.2933 195.57C86.5392 206.067 85.9809 208.001 85.8272 208.936Z" fill="#FFD2C6"/>
<path opacity="0.1" d="M85.8272 257.188L85.4996 259.09L81.2281 257.998L75.5044 256.14L72.6729 254.522C72.6729 254.522 72.7052 254.368 72.7618 254.072C72.7618 254.072 72.7618 254.04 72.7618 254.024C72.7861 253.898 72.8104 253.749 72.8468 253.579L73.2513 253.538H73.2836C74.0974 253.463 74.9177 253.574 75.6823 253.862C76.6127 254.214 77.8343 254.615 78.0851 254.445C78.5174 254.259 78.9867 254.176 79.4563 254.202L80.051 252.899L80.1359 252.701C80.3205 253.197 80.5947 253.655 80.9449 254.052C81.0858 254.219 81.2386 254.376 81.402 254.522L81.3777 254.983L81.3454 255.635C81.9838 256.044 82.6752 256.364 83.4002 256.585C83.5888 256.632 83.786 256.632 83.9746 256.585L84.3791 256.747C84.7988 256.906 85.2268 257.041 85.6614 257.152C85.7158 257.168 85.7712 257.18 85.8272 257.188Z" fill="black"/>
<path d="M83.7072 261.247C82.514 260.903 79.638 260.357 79.1728 260.782C78.7076 261.207 74.7233 260.782 74.7233 260.782C74.3045 260.774 73.8949 260.659 73.5341 260.446C73.1733 260.233 72.8737 259.931 72.6644 259.568C71.8554 258.277 72.5066 254.101 72.5066 254.101L72.8019 254.072L73.2954 254.024H73.3277C74.1415 253.946 74.9623 254.057 75.7264 254.348C76.6568 254.696 77.8784 255.096 78.1292 254.93C78.5609 254.743 79.0306 254.66 79.5004 254.688L80.18 253.186C80.3656 253.682 80.6397 254.14 80.989 254.538C81.1299 254.705 81.2827 254.862 81.4461 255.007L81.3894 256.12C82.0285 256.527 82.7197 256.846 83.4443 257.067C83.6193 257.139 83.8138 257.147 83.9941 257.09C84.1744 257.033 84.3291 256.915 84.4313 256.755C84.4637 256.704 84.4882 256.648 84.5041 256.59C84.5405 256.658 84.9329 256.792 86.1909 257.152C87.5581 257.075 88.8768 257.67 89.4835 259.523C90.0903 261.377 84.8763 261.587 83.7072 261.247Z" fill="#2D293D"/>
<path opacity="0.1" d="M70.3587 194.514C70.0917 194.591 69.849 194.664 69.6225 194.737C69.0403 194.915 68.4433 195.041 67.8387 195.113C64.0242 195.651 57.7261 195.327 55.7319 195.202C55.7578 194.402 55.8307 193.605 55.9504 192.814L69.7439 190.985C69.7439 190.985 70.5124 193.231 70.3587 194.514Z" fill="black"/>
<path d="M82.3807 191.163C82.3807 191.163 77.3163 191.948 73.1985 192.851C71.8232 193.15 70.553 193.462 69.6146 193.769C69.0314 193.944 68.4347 194.07 67.8308 194.146C63.2437 194.789 55.097 194.194 55.097 194.194C52.8602 186.935 57.8153 177.793 57.8153 177.793C57.698 177.065 58.8468 174.831 58.8468 174.831L58.867 174.758L59.5708 172.168H78.3842L78.6148 173.281L79.0921 175.547L82.0449 189.577L82.3807 191.163Z" fill="#474A5C"/>
<path opacity="0.1" d="M85.2933 195.566L85.18 195.615L82.9795 196.59C80.597 197.69 73.4657 197.897 70.9739 197.917C70.7874 196.895 70.7088 195.856 70.7393 194.817C70.7393 194.817 83.7319 182.957 85.1558 194.441C85.2043 194.85 85.2488 195.202 85.2933 195.566Z" fill="black"/>
<path d="M85.6407 194.445L85.1796 194.647L82.9791 195.627C80.5521 196.744 73.1942 196.942 70.8441 196.954H70.2252C69.1371 196.918 68.049 195.898 68.049 195.631C68.049 195.485 67.9357 194.769 67.8386 194.154C67.7577 193.66 67.6849 193.235 67.6849 193.235C67.6849 193.235 62.8309 191.139 60.3675 189.444C58.5189 188.185 58.9841 179.242 59.3441 174.746C59.4695 173.196 59.5787 172.177 59.5787 172.177L78.6226 173.289L81.2923 173.443L82.8214 173.783L83.2259 173.868C83.2259 173.868 84.318 181.856 84.8439 182.52C85.3697 183.183 85.0299 185.425 84.9652 186.7C84.9627 187.244 84.9031 187.787 84.7872 188.319C84.7872 188.319 85.572 190.56 85.3859 191.815C85.3025 192.7 85.389 193.593 85.6407 194.445Z" fill="#474A5C"/>
<path d="M65.2584 128.108C69.5678 128.108 73.0612 124.614 73.0612 120.303C73.0612 115.991 69.5678 112.497 65.2584 112.497C60.949 112.497 57.4556 115.991 57.4556 120.303C57.4556 124.614 60.949 128.108 65.2584 128.108Z" fill="#FFD2C6"/>
<path d="M61.4602 123.56C61.4602 123.56 62.0022 130.953 60.4934 132.649C58.9846 134.344 55.0488 137.549 55.0488 137.549L56.2623 142.571L63.0984 143.36L71.0833 134.826L69.2671 132.588C69.2671 132.588 67.8756 127.866 69.0244 125.507C70.1731 123.147 61.4602 123.56 61.4602 123.56Z" fill="#FFD2C6"/>
<path opacity="0.1" d="M77.9595 139.816L77.555 140.463L75.128 139.795L73.4331 133.454L73.5383 131.613L74.0358 130.897C74.0358 130.897 76.6974 130.961 76.5801 133.381C76.4628 135.506 77.6723 139.006 77.9595 139.816Z" fill="black"/>
<path opacity="0.1" d="M83.2222 174.831C83.2222 174.831 81.2968 175.26 79.0923 175.547C76.8877 175.835 74.3434 175.98 73.2998 175.373C71.5483 174.337 62.0587 174.633 59.3364 174.738C59.1423 174.738 58.9885 174.738 58.8672 174.758L59.571 172.168H78.3844L78.615 173.281L81.2847 173.435L82.8137 173.775C83.0685 174.402 83.2222 174.831 83.2222 174.831Z" fill="black"/>
<path d="M73.5465 131.378C73.5465 131.378 76.2082 131.439 76.0868 133.859C75.9655 136.279 77.539 140.455 77.539 140.455L76.9322 141.847C76.9322 141.847 76.0868 145.234 76.7502 146.084C77.4136 146.933 79.8365 146.929 78.4451 153.89C78.4451 153.89 78.1457 159.094 78.8698 160.789C79.5938 162.485 79.5938 166.535 80.6819 168.231C81.7701 169.926 83.2263 173.86 83.2263 173.86C83.2263 173.86 75.3587 175.612 73.3038 174.402C71.249 173.192 58.6043 173.807 58.6043 173.807C58.6043 173.807 58.6649 171.687 58.6043 171.448C58.5489 171.183 58.5473 170.91 58.5994 170.644C58.6515 170.379 58.7563 170.126 58.9076 169.902C59.3121 169.328 59.9957 168.36 59.6317 167.515C59.2676 166.669 60.5418 165.419 59.8744 164.107C59.207 162.796 58.398 162.533 58.5598 161.817C58.7216 161.101 58.3009 160.13 57.8195 159.527C57.3382 158.924 54.0657 152.526 54.0657 152.526L53.5237 149.527C53.5237 149.527 49.3129 146.44 49.3897 144.987C49.4666 143.534 50.9834 141.523 50.9834 141.523L55.0285 137.545C55.0285 137.545 57.2654 139.973 59.4416 139.119C61.6178 138.266 66.3141 134.219 66.3141 134.219C66.3141 134.219 67.9887 133.312 68.11 132.649C68.2314 131.985 69.2588 132.588 69.2588 132.588C69.2588 132.588 70.7717 131.759 71.075 132.05C71.3784 132.341 72.693 132.588 72.693 132.588L73.5465 131.378Z" fill="#FF7500"/>
<path d="M50.6801 143.983L49.3897 144.991C49.3897 144.991 48.0792 147.354 47.7717 151.587C47.4643 155.82 46.1537 161.809 46.1537 161.809L43.6135 166.353C43.6135 166.353 39.4269 175.122 38.8849 177.449C38.3428 179.776 35.8592 183.713 35.8592 183.713C35.8592 183.713 27.4496 191.272 33.3189 192.616C39.1882 193.959 39.3662 186.599 39.3662 186.599C39.3662 186.599 40.7375 185.085 40.9599 184.057C41.1824 183.029 48.6212 169.866 48.6212 169.866C48.6212 169.866 51.2262 166.325 50.6801 164.451C50.6801 164.451 54.0658 156.483 54.0658 154.484C54.0018 152.821 53.8207 151.165 53.5238 149.527L54.0658 145.351L50.6801 143.983Z" fill="#FFD2C6"/>
<path opacity="0.1" d="M68.1018 160.668C68.1018 160.668 62.1718 163.771 61.023 163.933C59.8742 164.095 66.0429 163.286 66.0429 163.286L68.1018 160.668Z" fill="black"/>
<path opacity="0.1" d="M72.9393 163.088C72.9393 163.088 65.0758 165.75 61.6133 165.265C61.6295 165.265 70.217 166.9 72.9393 163.088Z" fill="black"/>
<path opacity="0.1" d="M73.4251 163.958C73.4251 163.958 66.3463 168.409 62.1719 167.685C62.1719 167.685 71.9123 169.623 73.4251 168.595L69.0686 167.381C69.0686 167.381 73.9105 164.824 73.4251 163.958Z" fill="black"/>
<path opacity="0.1" d="M65.2701 106.568C63.2234 106.164 60.9541 106.406 59.3159 107.693C58.1024 108.648 57.2934 110.121 55.9302 110.817C55.2086 111.121 54.4698 111.382 53.7176 111.598C52.3903 112.141 51.2843 113.114 50.5777 114.362C49.871 115.61 49.6049 117.06 49.8222 118.477C50.0366 119.691 50.5989 120.784 50.8739 121.966C51.3674 124.078 50.9346 126.292 50.3966 128.392C48.9046 134.228 46.6396 139.84 43.6617 145.076C43.4244 145.4 43.3058 145.796 43.3259 146.197C43.3969 146.467 43.5362 146.713 43.7304 146.913C46.5255 150.151 51.0762 151.255 55.3477 151.401C56.9212 151.454 58.5837 151.401 59.9509 150.636C60.8422 150.124 61.6089 149.42 62.1959 148.576C63.6867 146.541 64.4271 144.051 64.2912 141.531C64.1739 139.508 63.4822 137.448 64.004 135.485C64.0594 135.211 64.1848 134.956 64.3681 134.745C64.8292 134.276 65.5816 134.397 66.245 134.32C68.0208 134.114 69.1695 132.24 69.3799 130.468C69.5902 128.695 69.1453 126.903 69.1372 125.118C69.1276 122.755 69.8652 120.449 71.2446 118.53C71.8352 117.721 72.5916 116.911 72.7898 115.896C73.0406 114.621 72.3004 113.682 71.6613 112.658C70.6702 111.088 70.1848 109.255 68.676 108.057C67.6723 107.302 66.5059 106.792 65.2701 106.568Z" fill="black"/>
<path d="M64.7848 106.083C62.7421 105.678 60.4688 105.921 58.8306 107.212C57.617 108.163 56.808 109.64 55.4449 110.336C54.7249 110.639 53.9873 110.898 53.2363 111.113C51.9088 111.655 50.8023 112.628 50.0949 113.876C49.3876 115.124 49.1206 116.574 49.3369 117.992C49.5513 119.206 50.1135 120.299 50.3927 121.484C50.8861 123.597 50.4493 125.806 49.9153 127.906C48.4267 133.742 46.1658 139.353 43.1925 144.591C42.9548 144.913 42.8374 145.308 42.8608 145.707C42.9291 145.978 43.0688 146.226 43.2653 146.424C46.0645 149.661 50.6111 150.766 54.8826 150.911C56.4561 150.968 58.1186 150.911 59.4858 150.151C60.3772 149.637 61.1438 148.932 61.7308 148.087C63.2137 146.054 63.9496 143.571 63.814 141.058C63.6967 139.035 63.005 136.975 63.5309 135.008C63.585 134.734 63.7091 134.479 63.8909 134.268C64.352 133.798 65.1044 133.92 65.7718 133.863C67.5476 133.657 68.6923 131.783 68.9026 130.007C69.113 128.23 68.6721 126.445 68.6599 124.657C68.6449 122.287 69.3813 119.973 70.7633 118.049C71.3539 117.239 72.1063 116.43 72.3045 115.41C72.5553 114.136 71.8191 113.201 71.18 112.173C70.189 110.603 69.7036 108.77 68.1907 107.576C67.1881 106.818 66.0214 106.307 64.7848 106.083Z" fill="#474A5C"/>
<path opacity="0.1" d="M62.1719 181.747C62.1719 181.747 63.7252 189.007 66.3059 190.985L62.1719 181.747Z" fill="black"/>
<g opacity="0.1">
<path opacity="0.1" d="M49.7984 119.611C49.7175 119.327 49.6244 119.044 49.5273 118.765C49.6082 119.048 49.7013 119.331 49.7984 119.611Z" fill="black"/>
<path opacity="0.1" d="M71.8679 113.274C71.887 113.502 71.8761 113.732 71.8356 113.958C71.6333 114.981 70.8809 115.779 70.2904 116.596C68.9098 118.513 68.172 120.818 68.1829 123.18C68.1829 124.968 68.6319 126.753 68.4216 128.53C68.2112 130.306 67.0665 132.171 65.2907 132.386C64.6354 132.463 63.8709 132.337 63.4138 132.791C63.2306 133.002 63.1051 133.257 63.0498 133.531C62.5361 135.498 63.2197 137.554 63.3329 139.581C63.4697 142.094 62.7353 144.576 61.2538 146.61C60.6658 147.454 59.8994 148.159 59.0088 148.674C57.6214 149.422 55.9791 149.483 54.4015 149.434C50.2028 149.293 45.7371 148.22 42.9299 145.1C42.8551 145.285 42.8313 145.486 42.8611 145.683C42.9294 145.954 43.0691 146.201 43.2656 146.399C46.0648 149.637 50.6114 150.742 54.8829 150.887C56.4564 150.944 58.1189 150.887 59.4861 150.126C60.3767 149.611 61.1431 148.907 61.7311 148.063C63.214 146.03 63.9499 143.547 63.8143 141.034C63.697 139.01 63.0053 136.951 63.5311 134.984C63.5853 134.71 63.7093 134.455 63.8911 134.243C64.3523 133.774 65.1047 133.895 65.7721 133.839C67.5478 133.632 68.6926 131.759 68.9029 129.982C69.1133 128.206 68.6724 126.421 68.6602 124.633C68.6503 122.271 69.3865 119.967 70.7636 118.049C71.3542 117.239 72.1066 116.43 72.3048 115.41C72.4324 114.668 72.2764 113.906 71.8679 113.274Z" fill="black"/>
</g>
<path d="M210.855 309.155C210.855 309.155 195.464 308.224 197.28 319.013C197.28 319.013 196.92 320.919 198.647 321.785C198.647 321.785 198.675 320.975 200.225 321.259C200.776 321.352 201.337 321.379 201.895 321.34C202.651 321.287 203.37 320.991 203.942 320.494C203.942 320.494 208.266 318.705 209.949 311.632C209.949 311.632 211.195 310.09 211.162 309.693L208.565 310.802C208.565 310.802 209.451 312.676 208.751 314.234C208.751 314.234 208.671 310.871 208.169 310.952C208.068 310.952 206.822 311.599 206.822 311.599C206.822 311.599 208.347 314.865 207.194 317.236C207.194 317.236 207.631 313.214 206.345 311.838L204.516 312.902C204.516 312.902 206.3 316.277 205.091 319.029C205.091 319.029 205.402 314.808 204.132 313.165L202.474 314.456C202.474 314.456 204.152 317.779 203.129 320.061C203.129 320.061 202.995 315.148 202.114 314.8C202.114 314.8 200.665 316.075 200.447 316.601C200.447 316.601 201.592 319.029 200.88 320.287C200.88 320.287 200.443 317.014 200.071 317.002C200.071 317.002 198.627 319.171 198.477 320.644C198.547 319.269 198.975 317.937 199.719 316.779C198.887 316.937 198.119 317.335 197.51 317.924C197.51 317.924 197.733 316.391 200.075 316.257C200.075 316.257 201.288 314.614 201.588 314.513C201.588 314.513 199.258 314.319 197.846 314.946C197.846 314.946 199.088 313.497 202.017 314.137L203.635 312.801C203.635 312.801 200.568 312.397 199.266 312.846C199.266 312.846 200.763 311.563 204.075 312.498L205.855 311.429C205.855 311.429 203.242 310.867 201.685 311.069C201.685 311.069 203.327 310.183 206.377 311.146L207.651 310.571C207.651 310.571 205.734 310.195 205.176 310.139C204.617 310.082 204.585 309.924 204.585 309.924C205.798 309.722 207.043 309.862 208.181 310.329C208.181 310.329 210.899 309.325 210.855 309.155Z" fill="url(#paint0_linear)"/>
<path opacity="0.1" d="M200.253 324.569C206.269 324.569 211.146 323.745 211.146 322.728C211.146 321.711 206.269 320.886 200.253 320.886C194.236 320.886 189.359 321.711 189.359 322.728C189.359 323.745 194.236 324.569 200.253 324.569Z" fill="#FF7500"/>
<path d="M30.0461 228.199C30.0461 228.199 17.1181 236.603 24.9934 244.197C24.9934 244.197 25.8373 245.944 27.7409 245.613C27.7409 245.613 27.2824 244.945 28.6965 244.252C29.1953 243.998 29.6623 243.687 30.0877 243.324C30.6645 242.832 31.0655 242.166 31.2304 241.426C31.2304 241.426 33.6435 237.417 30.7903 230.729C30.7903 230.729 30.8751 228.749 30.6133 228.449L29.1847 230.885C29.1847 230.885 31.011 231.865 31.3748 233.533C31.3748 233.533 29.3102 230.878 28.955 231.241C28.8737 231.301 28.257 232.563 28.257 232.563C28.257 232.563 31.425 234.281 31.9082 236.874C31.9082 236.874 29.8676 233.38 28.0153 233.038L27.1781 234.981C27.1781 234.981 30.6192 236.634 31.283 239.566C31.283 239.566 29.0237 235.987 27.0256 235.421L26.4598 237.445C26.4598 237.445 29.7849 239.118 30.3193 241.562C30.3193 241.562 27.2907 237.691 26.3748 237.936C26.3748 237.936 25.9685 239.822 26.1057 240.375C26.1057 240.375 28.4698 241.646 28.6458 243.081C28.6458 243.081 26.3479 240.709 26.0415 240.921C26.0415 240.921 26.1702 243.523 26.9257 244.796C26.1644 243.65 25.7163 242.324 25.6262 240.951C25.0507 241.572 24.6701 242.349 24.5315 243.185C24.5315 243.185 23.7984 241.82 25.602 240.319C25.602 240.319 25.6007 238.277 25.7812 238.018C25.7812 238.018 23.7925 239.247 23.0304 240.591C23.0304 240.591 23.1674 238.687 25.9022 237.46L26.409 235.424C26.409 235.424 23.7032 236.922 22.9231 238.058C22.9231 238.058 23.3636 236.137 26.583 234.918L27.3787 233.001C27.3787 233.001 24.9433 234.102 23.8115 235.191C23.8115 235.191 24.605 233.502 27.6298 232.463L28.3125 231.243C28.3125 231.243 26.5472 232.081 26.0647 232.367C25.5823 232.654 25.4624 232.546 25.4624 232.546C26.3175 231.662 27.402 231.034 28.5942 230.733C28.5942 230.733 30.1829 228.31 30.0461 228.199Z" fill="url(#paint1_linear)"/>
<path opacity="0.1" d="M29.5934 247.257C35.6096 247.257 40.4867 246.433 40.4867 245.416C40.4867 244.399 35.6096 243.575 29.5934 243.575C23.5773 243.575 18.7002 244.399 18.7002 245.416C18.7002 246.433 23.5773 247.257 29.5934 247.257Z" fill="#FF7500"/>
<path opacity="0.1" d="M306.887 27.3189L304.969 31.0458C304.36 30.9958 303.76 30.8708 303.181 30.6735L303.016 30.4752C303.8 30.7747 306.446 25.7771 306.446 25.7771L306.531 25.8459C306.749 26.7159 306.887 27.3189 306.887 27.3189Z" fill="black"/>
<g opacity="0.1">
<path opacity="0.1" d="M332.593 26.8738H236.888C235.563 26.877 234.293 27.4048 233.355 28.342C232.418 29.2792 231.889 30.5495 231.885 31.8754V92.3687C231.889 93.6946 232.418 94.9649 233.355 95.9021C234.293 96.8393 235.563 97.3671 236.888 97.3703H311.964C311.964 97.3703 313.91 107.701 307.514 108.81C307.514 108.81 321.826 109.838 319.326 97.3703H332.589C333.914 97.3671 335.184 96.8391 336.121 95.9018C337.058 94.9645 337.586 93.6942 337.589 92.3687V31.8754C337.586 30.5506 337.059 29.2809 336.123 28.3437C335.187 27.4065 333.918 26.8781 332.593 26.8738Z" fill="black"/>
<g opacity="0.2">
<path opacity="0.2" d="M321.207 42.9309H248.267C247 42.9309 245.974 43.9582 245.974 45.2254V45.3629C245.974 46.6301 247 47.6574 248.267 47.6574H321.207C322.474 47.6574 323.5 46.6301 323.5 45.3629V45.2254C323.5 43.9582 322.474 42.9309 321.207 42.9309Z" fill="black"/>
<path opacity="0.2" d="M307.652 64.0544H248.267C247 64.0544 245.974 65.0817 245.974 66.3489V66.4865C245.974 67.7537 247 68.7809 248.267 68.7809H307.652C308.919 68.7809 309.946 67.7537 309.946 66.4865V66.3489C309.946 65.0817 308.919 64.0544 307.652 64.0544Z" fill="black"/>
<path opacity="0.2" d="M289.733 53.4926H248.267C247 53.4926 245.974 54.5198 245.974 55.787V55.9246C245.974 57.1918 247 58.219 248.267 58.219H289.733C290.999 58.219 292.026 57.1918 292.026 55.9246V55.787C292.026 54.5198 290.999 53.4926 289.733 53.4926Z" fill="black"/>
</g>
</g>
<path d="M333.843 26.036H238.138C236.813 26.0403 235.542 26.569 234.605 27.5069C233.668 28.4447 233.139 29.7154 233.135 31.0417V91.535C233.139 92.8609 233.668 94.1312 234.605 95.0684C235.543 96.0055 236.813 96.5334 238.138 96.5366H313.214C313.214 96.5366 315.16 106.868 308.764 107.976C308.764 107.976 323.076 109.004 320.576 96.5366H333.839C335.164 96.5334 336.434 96.0054 337.371 95.0681C338.308 94.1308 338.836 92.8605 338.839 91.535V31.0417C338.836 29.7165 338.309 28.4464 337.373 27.5085C336.437 26.5707 335.168 26.0414 333.843 26.036Z" fill="white"/>
<g opacity="0.2">
<path opacity="0.2" d="M322.457 42.0931H249.517C248.25 42.0931 247.224 43.1204 247.224 44.3876V44.5252C247.224 45.7924 248.25 46.8196 249.517 46.8196H322.457C323.724 46.8196 324.75 45.7924 324.75 44.5252V44.3876C324.75 43.1204 323.724 42.0931 322.457 42.0931Z" fill="#FF7500"/>
<path opacity="0.2" d="M308.902 63.2207H249.517C248.25 63.2207 247.224 64.248 247.224 65.5151V65.6527C247.224 66.9199 248.25 67.9472 249.517 67.9472H308.902C310.169 67.9472 311.196 66.9199 311.196 65.6527V65.5151C311.196 64.248 310.169 63.2207 308.902 63.2207Z" fill="#FF7500"/>
<path opacity="0.2" d="M290.983 52.6588H249.517C248.25 52.6588 247.224 53.6861 247.224 54.9533V55.0908C247.224 56.358 248.25 57.3853 249.517 57.3853H290.983C292.249 57.3853 293.276 56.358 293.276 55.0908V54.9533C293.276 53.6861 292.249 52.6588 290.983 52.6588Z" fill="#FF7500"/>
</g>
<path opacity="0.1" d="M261.223 325.002C279.997 325.002 295.217 322.504 295.217 319.422C295.217 316.34 279.997 313.841 261.223 313.841C242.448 313.841 227.229 316.34 227.229 319.422C227.229 322.504 242.448 325.002 261.223 325.002Z" fill="#FF7500"/>
<g opacity="0.1">
<path opacity="0.1" d="M300.597 148.054H196.887C195.451 148.059 194.075 148.631 193.059 149.647C192.043 150.663 191.471 152.04 191.467 153.477V219.033C191.471 220.469 192.043 221.846 193.059 222.862C194.075 223.878 195.451 224.451 196.887 224.455H278.244C278.244 224.455 280.352 235.648 273.427 236.85C273.427 236.85 288.931 237.963 286.221 224.455H300.597C302.033 224.451 303.41 223.878 304.425 222.862C305.441 221.846 306.013 220.469 306.018 219.033V153.477C306.013 152.04 305.441 150.663 304.425 149.647C303.41 148.631 302.033 148.059 300.597 148.054Z" fill="black"/>
<g opacity="0.2">
<path opacity="0.2" d="M288.454 188.351H209.026C207.759 188.351 206.732 189.378 206.732 190.646V191.18C206.732 192.447 207.759 193.474 209.026 193.474H288.454C289.721 193.474 290.747 192.447 290.747 191.18V190.646C290.747 189.378 289.721 188.351 288.454 188.351Z" fill="black"/>
<path opacity="0.2" d="M240.868 176.903H209.026C207.759 176.903 206.732 177.93 206.732 179.198V179.732C206.732 180.999 207.759 182.026 209.026 182.026H240.868C242.135 182.026 243.162 180.999 243.162 179.732V179.198C243.162 177.93 242.135 176.903 240.868 176.903Z" fill="black"/>
</g>
</g>
<path d="M299.711 147.152H195.981C194.545 147.156 193.168 147.729 192.153 148.745C191.137 149.761 190.565 151.138 190.561 152.575V218.13C190.565 219.567 191.137 220.944 192.153 221.96C193.168 222.976 194.545 223.548 195.981 223.553H277.338C277.338 223.553 279.446 234.746 272.521 235.952C272.521 235.952 288.029 237.064 285.319 223.553H299.711C301.147 223.548 302.524 222.976 303.539 221.96C304.555 220.944 305.127 219.567 305.132 218.13V152.575C305.127 151.138 304.555 149.761 303.539 148.745C302.524 147.729 301.147 147.156 299.711 147.152Z" fill="white"/>
<g opacity="0.2">
<path opacity="0.2" d="M287.553 187.448H208.125C206.858 187.448 205.831 188.476 205.831 189.743V190.277C205.831 191.544 206.858 192.572 208.125 192.572H287.553C288.819 192.572 289.846 191.544 289.846 190.277V189.743C289.846 188.476 288.819 187.448 287.553 187.448Z" fill="#FF7500"/>
<path opacity="0.2" d="M239.967 176H208.125C206.858 176 205.831 177.028 205.831 178.295V178.829C205.831 180.096 206.858 181.124 208.125 181.124H239.967C241.234 181.124 242.26 180.096 242.26 178.829V178.295C242.26 177.028 241.234 176 239.967 176Z" fill="#FF7500"/>
</g>
<path d="M280.785 315.626C280.295 313.55 279.976 311.725 279.976 311.725C279.976 311.725 280.089 309.463 279.073 307.763V307.197V303.017C279.361 302.258 279.715 301.525 280.129 300.827C280.882 299.512 280.129 294.697 280.129 294.697C280.129 294.697 277.338 287.906 278.018 283.601C278.697 279.295 272.286 264.472 272.286 264.472C272.325 263.043 272.528 261.623 272.889 260.24C272.956 259.949 272.983 259.651 272.97 259.353C272.972 259.317 272.972 259.281 272.97 259.244C272.97 259.244 272.97 259.268 272.97 259.281C272.872 256.448 270.627 251.114 270.627 251.114L270.931 240.969C270.931 240.969 272.363 234.984 270.025 226.952C269.216 224.152 268.686 221.906 268.354 220.178C268.318 219.98 268.281 219.773 268.249 219.611C273.063 218.879 276.744 218.268 276.744 218.268C276.744 218.268 273.961 206.585 272.076 204.562C270.191 202.539 268.686 196.064 268.686 196.064C268.686 196.064 267.703 187.813 269.289 185.405C270.874 182.997 271.097 178.837 271.097 178.837C271.097 178.837 274.737 176.207 275.17 175.042C275.603 173.876 276.384 171.246 276.384 169.858C276.384 168.47 275.931 167.228 276.08 166.499C276.23 165.771 275.024 162.995 275.627 161.68C275.785 161.276 275.867 160.846 275.87 160.413C275.87 160.413 275.87 160.389 275.87 160.377C275.873 159.228 275.766 158.081 275.55 156.953C274.505 156.07 273.285 155.418 271.97 155.039L271.89 154.723L271.687 153.914C271.566 153.833 271.449 153.764 271.331 153.7V153.4L271.295 152.214L271.865 149.552C272.978 144.914 266.793 144.222 266.793 144.222C266.419 143.512 265.795 142.965 265.041 142.689C263.795 142.252 264.835 149.661 265.418 150.135C265.854 150.491 267.205 152.813 267.845 153.955L267.95 154.145C267.847 154.234 267.752 154.333 267.667 154.44L267.901 156.059L267.938 156.306C267.529 156.816 267.196 157.383 266.951 157.989C266.951 157.989 268.083 159.231 267.857 160.619C267.63 162.007 268.2 163.735 268.229 163.828C268.164 163.751 267.367 162.89 266.574 163.1C265.782 163.31 263.557 163.978 263.557 163.978C263.557 163.978 261.898 164.269 262.052 164.634C262.206 164.998 260.919 166.604 260.919 166.604L256.47 162.38C256.429 162.254 256.381 162.129 256.341 161.995C256.151 161.392 256.015 160.773 255.936 160.146C256.421 160.029 256.896 159.877 257.36 159.693C257.821 159.53 258.237 159.259 258.573 158.904C259.022 158.369 259.107 157.645 259.289 156.981C259.645 155.682 260.402 154.525 260.944 153.291C261.863 151.212 262.171 148.914 261.834 146.667C261.763 145.975 261.529 145.311 261.15 144.728C260.422 143.725 259.103 143.32 258.141 142.519C257.178 141.717 256.563 140.495 255.447 139.901C254.435 139.358 253.202 139.423 252.061 139.609C249.832 139.978 247.691 140.757 245.747 141.908C245.095 142.292 244.383 142.737 243.635 142.604C242.996 142.486 242.527 141.972 242.11 141.483C242.11 141.463 242.11 141.442 242.13 141.422L242.082 141.365C241.625 142.407 241.4 143.535 241.422 144.672C241.422 144.85 241.422 145.028 241.443 145.206V145.392C241.443 145.444 241.443 145.497 241.443 145.546C241.444 145.626 241.433 145.707 241.41 145.784C241.319 146.012 241.182 146.217 241.006 146.387C240.869 146.54 240.747 146.705 240.642 146.881C240.658 146.819 240.679 146.758 240.702 146.699C240.418 147.115 240.258 147.603 240.241 148.107C240.216 148.472 240.335 148.833 240.573 149.111C240.796 149.329 241.04 149.526 241.301 149.697C240.991 151.408 241.213 153.172 241.936 154.752C242.659 156.332 243.849 157.653 245.346 158.535C245.399 158.661 245.451 158.79 245.5 158.92C246.07 160.421 246.499 162.157 246.309 163.776C246.309 163.897 246.277 164.014 246.252 164.132C246.228 164.249 246.143 164.253 246.094 164.318C246.094 164.318 238.737 164.391 237.001 162.821C235.266 161.251 232.629 166.653 232.629 166.653C232.629 166.653 229.991 167.163 229.465 166.653C228.94 166.143 225.845 166.58 225.845 166.58C224.586 165.462 222.949 164.864 221.266 164.905C220.237 164.122 219.101 163.489 217.893 163.027L217.812 162.999C217.281 162.806 216.715 162.734 216.153 162.788C216.153 162.788 212.533 159.794 211.477 158.191C210.421 156.589 205.41 150.628 205.373 150.6V150.313L205.317 149.443C205.168 149.468 205.018 149.481 204.868 149.483C204.839 149.398 204.807 149.297 204.767 149.184C204.476 148.338 204.119 147.516 203.699 146.727C203.699 146.727 203.699 145.635 204.018 145.359C204.338 145.084 203.885 141.07 203.885 141.07C203.885 141.07 200.624 133.442 197.704 139.136C197.704 139.136 192.183 142.822 196.818 147.112C196.818 147.112 198.667 148.006 198.926 148.73C199.099 149.192 199.735 150.478 200.139 151.332L200.329 151.717L200.277 151.761L200.345 152.478L200.374 152.753C199.5 153.25 198.909 153.74 199.051 154.112C199.309 154.745 199.487 155.407 199.581 156.083C199.581 156.083 205.964 164.095 206.793 167.535C206.793 167.535 223.98 177.753 229.635 178.481L228.656 183.592C228.51 184.974 228.435 186.362 228.43 187.752C228.503 188.849 227.75 193.822 227.75 193.822C227.75 193.822 226.771 201.106 225.942 202.142C225.113 203.178 225.283 207.536 225.283 207.536C225.083 209.632 224.704 211.708 224.15 213.74C223.341 216.516 223.924 219.947 223.924 219.947C223.924 219.947 221.06 226.515 227.92 222.064C227.92 222.064 231.29 221.853 235.169 221.72C235.169 221.849 235.169 221.975 235.169 222.124C235.169 222.622 235.169 223.164 235.145 223.743C235.092 227.506 235.072 232.69 235.242 236.615C235.545 243.547 237.669 257.273 237.669 257.273V264.153C237.534 264.801 237.468 265.461 237.471 266.123C237.424 268.554 238.068 270.948 239.327 273.027L239.857 277.624C239.857 277.624 241.095 280.655 241.119 282.48C241.113 282.628 241.096 282.776 241.067 282.921C241.02 283.153 241 283.389 241.006 283.625C240.937 285.713 242.195 290.707 242.195 290.707C242.195 290.707 242.268 295.745 243.004 296.036C243.647 296.287 242.143 298.942 241.694 299.702C241.694 299.654 241.694 299.605 241.665 299.557L241.572 299.711C241.416 300.116 241.337 300.547 241.338 300.981C241.295 301.326 241.351 301.675 241.499 301.989C241.648 302.303 241.882 302.568 242.175 302.754C243.607 303.628 244.375 304.372 243.158 304.651C242.711 304.722 242.268 304.815 241.831 304.931L241.766 304.761C241.596 304.83 241.455 304.955 241.365 305.115C241.275 305.276 241.243 305.462 241.273 305.643C241.282 306.24 241.436 306.826 241.722 307.351C242.935 310.054 243.744 311.074 243.744 311.074L244.327 311.009C244.239 311.229 244.126 311.438 243.991 311.632C243.771 311.949 243.479 312.209 243.138 312.389C242.823 312.578 242.471 312.698 242.106 312.741C241.697 312.754 241.296 312.854 240.928 313.033C240.56 313.212 240.233 313.467 239.97 313.781C239.218 314.756 238.757 316.079 240.233 317.245L245.625 319.106C245.625 319.106 254.896 320.32 254.407 318.228C253.918 316.136 253.598 314.323 253.598 314.323C253.636 313.051 253.378 311.788 252.846 310.632C252.748 310.445 252.639 310.264 252.518 310.09L252.846 310.054C252.846 310.054 253.525 305.453 254.427 304.579C254.638 304.376 254.686 304.223 254.634 304.101C254.727 303.85 254.492 303.696 254.189 303.62L254.124 303.802C253.827 303.737 253.525 303.703 253.222 303.701C253.222 303.701 252.922 301.293 253.901 300.419C253.98 300.319 254.038 300.204 254.071 300.08C254.103 299.957 254.11 299.828 254.091 299.702C254.098 299.372 254.064 299.041 253.99 298.719L253.954 298.776C253.46 296.591 251.79 293.11 251.79 293.11C251.79 293.11 251.713 290.921 252.32 290.043C252.927 289.165 252.243 278.146 252.243 278.146C252.243 278.146 252.469 272.817 251.79 270.336C251.11 267.855 252.619 264.934 252.619 264.934C252.619 264.934 252.619 264.873 252.619 264.772L252.639 264.735C252.639 264.735 252.603 264.408 252.55 263.898C252.55 263.898 252.55 263.93 252.55 263.946C252.397 262.538 252.109 259.981 251.899 258.799C251.596 257.12 251.972 249.087 251.972 249.087L253.331 245.655L255.758 251.572L258.323 259.455C258.323 259.455 259.593 261.118 259.621 262.805C259.627 262.887 259.627 262.97 259.621 263.052C259.602 263.228 259.592 263.405 259.593 263.582C259.548 264.576 259.821 265.559 260.373 266.386C260.373 266.386 261.053 270.109 262.109 271.06C263.164 272.011 263.164 273.832 263.164 273.832C263.164 273.832 264.443 279.235 265.049 280.185C265.555 280.995 265.583 283.184 265.579 283.856C265.579 283.981 265.579 284.054 265.579 284.054C265.579 284.054 265.757 285.984 265.749 287.607C265.749 287.805 265.749 288.012 265.749 288.186C265.747 288.171 265.747 288.156 265.749 288.141C265.746 288.584 265.693 289.025 265.591 289.456C265.591 289.456 265.591 289.505 265.567 289.533L265.591 289.258C265.32 290.36 265.184 291.49 265.187 292.625C265.151 294.567 265.446 296.866 266.623 298.213C268.645 300.552 269.94 300.261 269.94 300.261C269.94 300.261 268.961 303.178 267.751 303.761C267.707 303.785 267.665 303.813 267.626 303.846C267.626 303.79 267.602 303.733 267.594 303.676C267.463 303.823 267.364 303.996 267.303 304.183C267.242 304.371 267.222 304.569 267.242 304.765C267.153 306.048 267.962 308.132 268.734 309.091C269.018 309.372 269.369 309.577 269.754 309.686L269.564 309.803C269.433 309.876 269.297 309.942 269.159 310.001C268.964 310.087 268.756 310.14 268.544 310.159C268.135 310.171 267.733 310.27 267.365 310.449C266.996 310.628 266.67 310.884 266.409 311.199C265.656 312.17 265.195 313.493 266.671 314.659L272.063 316.52C272.063 316.52 281.274 317.71 280.785 315.626Z" fill="url(#paint2_linear)"/>
<path d="M245.367 319.082L240.149 317.22C238.709 316.055 239.17 314.732 239.894 313.756C240.144 313.445 240.458 313.191 240.815 313.012C241.171 312.833 241.562 312.732 241.961 312.716C242.316 312.674 242.657 312.554 242.96 312.364C243.286 312.18 243.564 311.921 243.769 311.608C244.153 311.002 244.359 310.301 244.364 309.584C244.364 309.584 250.095 307.905 251.645 309.584C251.924 309.888 252.158 310.23 252.34 310.6C252.856 311.76 253.104 313.021 253.069 314.29C253.069 314.29 253.364 316.116 253.833 318.195C254.302 320.275 245.367 319.082 245.367 319.082Z" fill="#2D293D"/>
<path d="M270.906 316.504L265.688 314.642C264.248 313.477 264.705 312.154 265.433 311.182C265.682 310.87 265.996 310.615 266.353 310.436C266.71 310.256 267.101 310.156 267.5 310.142C267.706 310.124 267.907 310.07 268.095 309.985C268.235 309.929 268.37 309.862 268.5 309.786C269.956 308.977 269.919 307.014 269.919 307.014C269.919 307.014 275.647 305.335 277.2 307.014C277.411 307.24 277.594 307.49 277.746 307.759C278.733 309.459 278.624 311.725 278.624 311.725C278.624 311.725 278.915 313.55 279.389 315.63C279.862 317.71 270.906 316.504 270.906 316.504Z" fill="#2D293D"/>
<path opacity="0.1" d="M251.677 309.588C251.956 309.892 252.191 310.234 252.373 310.604L243.785 311.599C244.169 310.994 244.376 310.293 244.38 309.576C244.38 309.576 250.112 307.909 251.677 309.588Z" fill="black"/>
<path opacity="0.1" d="M277.763 307.751V309.37C276.432 311.571 269.973 311.089 268.096 309.985C268.235 309.929 268.37 309.862 268.5 309.786C269.956 308.977 269.92 307.014 269.92 307.014C269.92 307.014 275.648 305.335 277.201 307.014C277.417 307.237 277.606 307.484 277.763 307.751Z" fill="black"/>
<path d="M278.786 300.827C278.386 301.528 278.044 302.26 277.763 303.017V308.783C276.307 311.211 268.718 310.402 267.695 309.074C266.671 307.747 265.579 304.332 266.748 303.749C267.917 303.166 268.864 300.245 268.864 300.245C268.864 300.245 267.622 300.536 265.652 298.201C263.682 295.866 264.265 290.682 264.633 289.44C265.001 288.198 264.633 284.038 264.633 284.038C264.633 284.038 264.706 281.12 264.119 280.169C263.533 279.218 262.295 273.82 262.295 273.82C262.295 273.82 262.295 271.995 261.275 271.044C260.256 270.093 259.597 266.374 259.597 266.374C258.996 265.446 258.734 264.338 258.856 263.238C259.079 261.413 257.619 259.442 257.619 259.442L255.139 251.56L252.801 245.647L251.499 249.075C251.499 249.075 251.131 257.103 251.426 258.787C251.721 260.47 252.154 264.918 252.154 264.918C252.154 264.918 250.694 267.839 251.345 270.32C251.996 272.8 251.782 278.13 251.782 278.13C251.782 278.13 252.437 289.153 251.855 290.027C251.272 290.901 251.345 293.094 251.345 293.094C251.345 293.094 254.334 299.516 253.367 300.378C252.401 301.24 252.708 303.664 252.708 303.664C252.708 303.664 254.731 303.664 253.877 304.538C253.024 305.412 252.384 310.025 252.384 310.025L243.562 311.045C243.562 311.045 242.753 310.025 241.584 307.322C240.415 304.619 241.803 304.894 242.98 304.623C244.157 304.352 243.409 303.599 242.025 302.725C240.642 301.851 241.439 299.893 241.439 299.893C241.439 299.893 243.554 296.315 242.826 296.02C242.098 295.725 242.017 290.695 242.017 290.695C242.017 290.695 240.557 284.706 240.921 283.103C241.285 281.501 239.752 277.628 239.752 277.628L239.242 273.027C237.678 270.421 237.103 267.338 237.624 264.343V257.249C237.624 257.249 235.602 243.527 235.29 236.591C235.104 232.14 235.157 226.09 235.217 222.306C235.254 220.186 235.29 218.782 235.29 218.782L266.821 215.488C266.869 217.062 267.06 218.63 267.391 220.17C267.711 221.902 268.2 224.144 269.009 226.948C271.271 234.976 269.883 240.961 269.883 240.961L269.592 251.11C269.592 251.11 272.367 257.897 271.78 260.236C271.431 261.621 271.236 263.04 271.198 264.468C271.198 264.468 277.399 279.287 276.744 283.593C276.088 287.898 278.766 294.689 278.766 294.689C278.766 294.689 279.514 299.512 278.786 300.827Z" fill="#474A5C"/>
<path opacity="0.05" d="M260.762 262.797L270.361 261.518C270.361 261.518 264.924 267.066 260.762 262.797Z" fill="black"/>
<path opacity="0.1" d="M268.969 252.138C268.969 252.138 269.297 255.533 267.218 256.812C267.222 256.812 270.943 256.225 268.969 252.138Z" fill="black"/>
<path opacity="0.1" d="M268.383 241.338C268.383 241.338 260.362 247.942 257.462 247.408C254.561 246.873 268.383 241.338 268.383 241.338Z" fill="black"/>
<path opacity="0.1" d="M248.869 265.901C248.869 265.901 242.778 267.285 242.596 269.733C242.414 272.181 248.869 265.901 248.869 265.901Z" fill="black"/>
<path opacity="0.05" d="M250.209 296.34C250.209 296.34 241.601 297.958 244.044 299.039C246.487 300.119 250.516 301.009 250.516 301.009C250.516 301.009 253.275 301.155 250.209 296.34Z" fill="black"/>
<g opacity="0.05">
<path opacity="0.05" d="M242.305 300.779C242.089 300.642 241.907 300.459 241.771 300.242C241.635 300.026 241.55 299.782 241.52 299.528L241.431 299.682C241.431 299.682 240.622 301.653 242.014 302.515C242.175 302.616 242.325 302.717 242.463 302.814C242.721 302.766 242.997 302.729 243.272 302.664C244.437 302.381 243.692 301.653 242.305 300.779Z" fill="black"/>
<path opacity="0.05" d="M253.395 300.192C253.634 299.973 253.626 299.411 253.48 298.691C253.129 299.339 252.96 300.07 252.991 300.807C253.081 300.576 253.219 300.366 253.395 300.192Z" fill="black"/>
<path opacity="0.05" d="M252.073 263.877C251.754 264.74 251.558 265.643 251.49 266.56C251.655 265.926 251.878 265.308 252.158 264.715C252.158 264.715 252.125 264.387 252.073 263.877Z" fill="black"/>
<path opacity="0.05" d="M271.8 260.045C271.86 259.78 271.887 259.508 271.881 259.236C271.772 259.778 271.695 260.284 271.643 260.729C271.671 260.515 271.723 260.284 271.8 260.045Z" fill="black"/>
<path opacity="0.05" d="M251.863 289.829C252.03 289.306 252.104 288.758 252.081 288.21C251.817 288.86 251.68 289.555 251.677 290.258C251.722 290.108 251.784 289.964 251.863 289.829Z" fill="black"/>
<path opacity="0.05" d="M253.671 303.591C253.217 305.056 252.882 306.556 252.668 308.075L243.846 309.099C243.846 309.099 243.037 308.075 241.868 305.376C241.766 305.137 241.686 304.926 241.621 304.732C241.091 304.975 240.885 305.542 241.576 307.128C242.745 309.827 243.55 310.851 243.55 310.851L252.385 309.827C252.385 309.827 253.04 305.23 253.914 304.352C254.338 303.923 254.063 303.704 253.671 303.591Z" fill="black"/>
<path opacity="0.05" d="M242.013 290.484C242.013 290.484 242.086 295.522 242.822 295.814C243.19 294.98 243.437 294.195 243.109 294.057C242.377 293.766 242.3 288.728 242.3 288.728C242.3 288.728 240.844 282.743 241.208 281.136C241.572 279.53 240.039 275.661 240.039 275.661L239.53 271.064C237.963 268.457 237.388 265.373 237.912 262.376V255.295C237.912 255.295 235.889 241.572 235.578 234.657C235.392 230.205 235.444 224.135 235.505 220.372C235.505 219.688 235.525 219.081 235.537 218.571L235.286 218.596C235.286 218.596 235.246 220 235.214 222.124C235.149 225.904 235.096 231.966 235.286 236.405C235.578 243.341 237.62 257.063 237.62 257.063V264.145C237.097 267.141 237.671 270.226 239.238 272.833L239.752 277.401C239.752 277.401 241.285 281.27 240.921 282.876C240.557 284.483 242.013 290.484 242.013 290.484Z" fill="black"/>
<path opacity="0.05" d="M267.991 307.128C267.274 306.09 266.797 304.905 266.595 303.66C265.693 304.469 266.729 307.63 267.7 308.88C268.719 310.191 276.307 310.997 277.768 308.589V307.197C275.794 309.155 268.97 308.37 267.991 307.128Z" fill="black"/>
<path opacity="0.05" d="M279.082 298.881C278.679 299.58 278.337 300.313 278.059 301.07V302.086C278.224 301.71 278.463 301.212 278.791 300.621C279.024 300.049 279.133 299.434 279.11 298.816C279.098 298.836 279.088 298.858 279.082 298.881Z" fill="black"/>
<path opacity="0.05" d="M268.439 300.03C268.717 299.468 268.958 298.888 269.159 298.294C269.159 298.294 267.917 298.586 265.947 296.271C264.511 294.571 264.43 291.362 264.637 289.266C264.269 290.504 263.686 295.688 265.656 298.023C266.946 299.532 267.917 299.933 268.439 300.03Z" fill="black"/>
<path opacity="0.05" d="M264.633 283.844C264.762 285.282 264.811 286.726 264.779 288.17C264.816 287.94 264.866 287.713 264.929 287.49C265.297 286.251 264.929 282.091 264.929 282.091C264.929 282.091 265.001 279.17 264.419 278.223C263.837 277.276 262.595 271.87 262.595 271.87C262.595 271.87 262.595 270.045 261.575 269.098C260.556 268.151 259.897 264.424 259.897 264.424C259.297 263.495 259.039 262.386 259.165 261.288C259.383 259.463 257.927 257.492 257.927 257.492L255.443 249.605L253.109 243.693L251.794 247.124C251.794 247.124 251.794 247.557 251.75 248.233L252.818 245.445L255.152 251.357L257.644 259.244C257.644 259.244 259.104 261.215 258.885 263.04C258.759 264.139 259.018 265.247 259.618 266.176C259.618 266.176 260.273 269.899 261.292 270.85C262.312 271.801 262.316 273.622 262.316 273.622C262.316 273.622 263.557 279.024 264.14 279.975C264.722 280.926 264.633 283.844 264.633 283.844Z" fill="black"/>
</g>
<path d="M270.761 149.527L270.211 152.19L270.243 153.376L270.268 154.254L267.222 154.565L266.882 153.934C266.251 152.793 264.944 150.47 264.52 150.114C263.957 149.641 262.954 142.231 264.16 142.668C264.895 142.953 265.499 143.501 265.854 144.206C265.854 144.206 271.837 144.91 270.761 149.527Z" fill="#FFCDD3"/>
<path opacity="0.1" d="M270.268 154.27L267.222 154.582L266.882 153.95C267.292 153.484 267.851 153.174 268.464 153.073C269.076 152.972 269.705 153.086 270.243 153.396L270.268 154.27Z" fill="black"/>
<path d="M271.036 155.711L267.019 156.641L266.939 156.042L266.708 154.424C266.708 154.424 268.298 152.303 270.595 153.894L270.794 154.703L271.036 155.711Z" fill="#DCE6F2"/>
<path d="M206 149.835L201.717 152.133L201.312 151.324C200.908 150.47 200.297 149.183 200.131 148.722C199.876 148.014 198.088 147.103 198.088 147.103C193.602 142.814 198.946 139.127 198.946 139.127C201.777 133.434 204.928 141.062 204.928 141.062C204.928 141.062 205.365 145.08 205.058 145.351C204.75 145.622 204.746 146.719 204.746 146.719C205.157 147.509 205.503 148.33 205.782 149.175C205.932 149.584 206 149.835 206 149.835Z" fill="#FFCDD3"/>
<path opacity="0.1" d="M206.001 149.835L201.717 152.133L201.312 151.324C201.915 150.822 204.063 149.082 204.767 149.159C205.104 149.201 205.444 149.21 205.782 149.188C205.932 149.584 206.001 149.835 206.001 149.835Z" fill="black"/>
<path d="M206.437 151.146L201.624 153.522L201.527 152.486L201.458 151.769C201.458 151.769 204.249 149.378 205.074 149.467C205.491 149.528 205.915 149.528 206.332 149.467L206.385 150.333L206.437 151.146Z" fill="#DCE6F2"/>
<path d="M259.087 167.244C259.087 167.244 238.085 169.615 242.013 168.34C244.743 167.45 245.827 165.714 246.058 163.784C246.24 162.165 245.827 160.425 245.273 158.928C244.778 157.602 244.149 156.33 243.396 155.132C243.396 155.132 259.451 146.298 256.239 154.323C255.744 155.537 255.437 156.82 255.329 158.126C255.228 159.423 255.365 160.728 255.734 161.975C256.341 164.008 257.502 165.833 259.087 167.244Z" fill="#FFCDD3"/>
<path opacity="0.1" d="M256.239 154.327C255.744 155.541 255.437 156.824 255.329 158.131C253.816 159.401 252.158 159.316 250.03 159.316C248.412 159.316 246.584 159.721 245.273 158.912C244.778 157.586 244.149 156.314 243.396 155.116C243.396 155.116 259.451 146.29 256.239 154.327Z" fill="black"/>
<path d="M249.743 159.875C254.54 159.875 258.428 155.985 258.428 151.186C258.428 146.388 254.54 142.498 249.743 142.498C244.947 142.498 241.059 146.388 241.059 151.186C241.059 155.985 244.947 159.875 249.743 159.875Z" fill="#FFCDD3"/>
<path opacity="0.1" d="M259.087 167.244C259.087 167.244 238.085 169.615 242.013 168.34C244.743 167.45 245.827 165.714 246.058 163.784C247.102 162.651 249.201 161.833 250.552 161.4C251.784 160.986 253.114 160.965 254.358 161.34C254.848 161.485 255.314 161.7 255.742 161.979C256.348 164.01 257.506 165.833 259.087 167.244Z" fill="black"/>
<path opacity="0.1" d="M271.036 155.711L267.019 156.641L266.938 156.042C267.368 155.453 267.968 155.01 268.658 154.774C269.348 154.538 270.093 154.52 270.793 154.723L271.036 155.711Z" fill="black"/>
<path opacity="0.1" d="M206.437 151.146L201.623 153.521L201.526 152.486C203.088 151.647 204.711 150.928 206.38 150.333L206.437 151.146Z" fill="black"/>
<path opacity="0.1" d="M267.392 220.178C259.261 221.465 247.684 223.136 245.848 222.578C244.327 222.112 239.461 222.173 235.226 222.306C235.262 220.186 235.298 218.782 235.298 218.782L266.821 215.488C266.869 217.065 267.06 218.635 267.392 220.178Z" fill="black"/>
<path d="M275.502 218.268C275.502 218.268 248.724 222.869 245.848 221.991C242.972 221.112 228.22 222.063 228.22 222.063C221.582 226.515 224.353 219.947 224.353 219.947C224.353 219.947 223.771 216.515 224.572 213.743C225.116 211.71 225.489 209.635 225.688 207.54C225.688 207.54 225.542 203.157 226.343 202.138C227.144 201.118 228.095 193.814 228.095 193.814C228.095 193.814 228.827 188.853 228.754 187.744C228.757 186.354 228.83 184.966 228.972 183.584L229.919 178.473C224.446 177.745 207.809 167.523 207.809 167.523C207 164.095 200.807 156.063 200.807 156.063C200.717 155.387 200.544 154.725 200.293 154.092C199.856 152.926 206.426 150.592 206.426 150.592C206.426 150.592 211.312 156.577 212.335 158.183C213.359 159.79 216.858 162.78 216.858 162.78C217.406 162.724 217.96 162.796 218.476 162.99L218.561 163.015C219.735 163.48 220.836 164.112 221.829 164.892C223.474 164.853 225.07 165.455 226.279 166.572C226.279 166.572 229.272 166.135 229.781 166.645C230.291 167.154 232.848 166.645 232.848 166.645C232.848 166.645 235.4 161.242 237.079 162.812C238.757 164.382 245.877 164.31 245.877 164.31C246.827 163.047 249.137 162.141 250.581 161.675C251.813 161.263 253.143 161.242 254.387 161.615C254.925 161.769 255.433 162.014 255.888 162.339L260.208 166.572C260.208 166.572 261.45 164.953 261.304 164.601C261.159 164.249 262.765 163.945 262.765 163.945C262.765 163.945 264.88 163.286 265.681 163.067C266.482 162.849 267.218 163.719 267.299 163.796C267.275 163.703 266.725 161.934 266.939 160.587C267.153 159.239 266.061 157.956 266.061 157.956C268.618 151.68 274.382 156.937 274.382 156.937C274.382 156.937 275.037 160.368 274.455 161.679C273.872 162.99 275.037 165.771 274.891 166.499C274.746 167.227 275.183 168.47 275.183 169.858C275.183 171.246 274.455 173.872 274.014 175.037C273.573 176.203 270.074 178.833 270.074 178.833C270.074 178.833 269.855 182.997 268.322 185.405C266.789 187.813 267.695 196.064 267.695 196.064C267.695 196.064 269.156 202.502 270.992 204.562C272.829 206.621 275.502 218.268 275.502 218.268Z" fill="#00AA13"/>
<path opacity="0.1" d="M236.467 170.238C236.467 170.238 235.658 167.831 234.934 167.612C234.208 167.343 233.502 167.025 232.818 166.661L233.288 165.763C233.288 165.763 236.026 166.515 236.467 167.317C236.908 168.118 236.467 170.238 236.467 170.238Z" fill="black"/>
<path opacity="0.1" d="M221.8 164.905C221.655 165.633 215.158 166.293 215.158 166.293L218.443 162.999L218.524 163.027C219.701 163.491 220.805 164.124 221.8 164.905Z" fill="black"/>
<path d="M203.007 155.472C203.329 155.472 203.59 155.211 203.59 154.889C203.59 154.567 203.329 154.306 203.007 154.306C202.686 154.306 202.425 154.567 202.425 154.889C202.425 155.211 202.686 155.472 203.007 155.472Z" fill="#575988"/>
<path d="M203.755 156.642C204.077 156.642 204.338 156.381 204.338 156.059C204.338 155.737 204.077 155.476 203.755 155.476C203.434 155.476 203.173 155.737 203.173 156.059C203.173 156.381 203.434 156.642 203.755 156.642Z" fill="#575988"/>
<path d="M204.488 157.718C204.809 157.718 205.07 157.457 205.07 157.135C205.07 156.813 204.809 156.552 204.488 156.552C204.166 156.552 203.905 156.813 203.905 157.135C203.905 157.457 204.166 157.718 204.488 157.718Z" fill="#575988"/>
<path d="M205.251 158.887C205.573 158.887 205.834 158.626 205.834 158.305C205.834 157.983 205.573 157.722 205.251 157.722C204.93 157.722 204.669 157.983 204.669 158.305C204.669 158.626 204.93 158.887 205.251 158.887Z" fill="#575988"/>
<path d="M274.034 158.713C274.295 158.713 274.507 158.501 274.507 158.24C274.507 157.978 274.295 157.766 274.034 157.766C273.772 157.766 273.561 157.978 273.561 158.24C273.561 158.501 273.772 158.713 274.034 158.713Z" fill="#575988"/>
<path d="M274.106 159.79C274.367 159.79 274.579 159.578 274.579 159.316C274.579 159.055 274.367 158.843 274.106 158.843C273.845 158.843 273.633 159.055 273.633 159.316C273.633 159.578 273.845 159.79 274.106 159.79Z" fill="#575988"/>
<path d="M274.172 160.866C274.433 160.866 274.645 160.654 274.645 160.393C274.645 160.131 274.433 159.919 274.172 159.919C273.91 159.919 273.698 160.131 273.698 160.393C273.698 160.654 273.91 160.866 274.172 160.866Z" fill="#575988"/>
<path opacity="0.1" d="M236.504 190.018C236.435 189.933 252.882 210.713 265.652 198.706C265.652 198.706 245.476 201.442 236.504 190.018Z" fill="black"/>
<path opacity="0.1" d="M227.055 200.823C227.055 200.823 236.896 201.09 237.924 203.922V206.872C237.644 207.028 237.329 207.11 237.009 207.11C236.69 207.11 236.375 207.028 236.095 206.872C235.104 206.334 229.15 203.311 227.055 204.764V200.823Z" fill="black"/>
<path opacity="0.1" d="M232.427 179.44C233.433 181.768 234.713 183.968 236.241 185.992C237.907 188.229 239.927 190.179 242.22 191.766C242.22 191.766 232.589 180.796 232.427 179.44Z" fill="black"/>
<path opacity="0.1" d="M229.207 168C229.207 168 230.849 175.09 235.08 177.502L229.207 168Z" fill="black"/>
<path opacity="0.1" d="M226.687 168.717C226.646 168.587 225.231 174.325 232.144 177.502C232.16 177.502 229.207 176.502 226.687 168.717Z" fill="black"/>
<path opacity="0.1" d="M269.665 163.962C269.555 163.962 273.079 166.204 274.033 167.244C274.033 167.244 271.744 163.816 269.665 163.962Z" fill="black"/>
<path d="M247.397 159.061C247.467 159.524 247.71 159.944 248.077 160.235C248.329 160.355 248.606 160.417 248.886 160.417C251.535 160.579 254.29 160.696 256.737 159.676C257.2 159.517 257.617 159.246 257.951 158.887C258.387 158.353 258.468 157.629 258.646 156.965C258.986 155.666 259.718 154.509 260.264 153.275C261.152 151.187 261.448 148.895 261.122 146.65C261.058 145.961 260.832 145.297 260.463 144.712C259.759 143.708 258.481 143.304 257.55 142.506C256.62 141.709 256.025 140.483 254.941 139.884C253.962 139.342 252.769 139.407 251.665 139.593C249.484 139.958 247.395 140.738 245.508 141.891C244.881 142.276 244.189 142.721 243.486 142.587C242.851 142.466 242.389 141.932 241.981 141.434C241.465 142.625 241.243 143.923 241.334 145.218C241.366 145.406 241.366 145.599 241.334 145.788C241.242 146.015 241.104 146.221 240.929 146.391C240.274 147.148 239.865 148.35 240.525 149.115C240.804 149.45 241.237 149.633 241.512 149.972C242.001 150.583 241.835 151.458 241.823 152.243C241.795 152.514 241.864 152.786 242.017 153.011C242.159 153.143 242.332 153.235 242.52 153.28C242.708 153.325 242.904 153.32 243.089 153.266C243.459 153.156 243.846 153.119 244.23 153.157C244.638 153.291 244.988 153.561 245.221 153.922C246.41 155.476 246.883 157.188 247.397 159.061Z" fill="#474A5C"/>
<g opacity="0.1">
<path opacity="0.1" d="M258.23 158.216C257.9 158.583 257.482 158.861 257.016 159.025C254.589 160.045 251.814 159.927 249.165 159.761C248.884 159.766 248.607 159.703 248.356 159.579C247.988 159.289 247.745 158.869 247.676 158.406C247.162 156.536 246.689 154.824 245.464 153.271C245.23 152.91 244.881 152.64 244.472 152.506C244.089 152.466 243.701 152.503 243.332 152.615C243.148 152.665 242.954 152.669 242.769 152.624C242.584 152.579 242.413 152.489 242.272 152.36C242.118 152.133 242.05 151.86 242.078 151.587C242.078 150.806 242.256 149.928 241.766 149.321C241.491 148.977 241.063 148.799 240.779 148.463C240.597 148.214 240.485 147.921 240.455 147.614C240.425 147.307 240.479 146.998 240.609 146.719C240.148 147.455 239.946 148.402 240.488 149.046C240.767 149.382 241.2 149.564 241.475 149.904C241.965 150.515 241.799 151.389 241.787 152.174C241.759 152.445 241.828 152.717 241.981 152.943C242.122 153.074 242.295 153.166 242.483 153.211C242.671 153.256 242.867 153.251 243.053 153.198C243.422 153.088 243.81 153.05 244.193 153.088C244.601 153.222 244.951 153.492 245.184 153.853C246.398 155.407 246.883 157.119 247.397 158.992C247.398 159.182 247.439 159.37 247.517 159.543C247.594 159.716 247.707 159.872 247.848 159.999C247.989 160.126 248.154 160.223 248.334 160.283C248.514 160.343 248.705 160.365 248.894 160.348C251.543 160.51 254.298 160.627 256.745 159.608C257.208 159.449 257.625 159.178 257.959 158.818C258.124 158.607 258.251 158.369 258.335 158.114C258.302 158.15 258.267 158.184 258.23 158.216Z" fill="black"/>
<path opacity="0.1" d="M241.334 145.558C241.453 145.433 241.544 145.284 241.601 145.121C241.633 144.932 241.633 144.739 241.601 144.55C241.526 143.485 241.664 142.417 242.005 141.406L241.957 141.349C241.439 142.54 241.217 143.838 241.31 145.133C241.33 145.273 241.338 145.416 241.334 145.558Z" fill="black"/>
</g>
<path opacity="0.1" d="M245.848 164.326C245.848 164.326 256.696 165.763 257.671 164.132L245.848 164.326Z" fill="black"/>
<path opacity="0.1" d="M266.946 159.834C266.946 159.834 272.969 159.834 274.296 162.104L266.946 159.834Z" fill="black"/>
</g>
<defs>
<linearGradient id="paint0_linear" x1="197.131" y1="315.46" x2="211.163" y2="315.46" gradientUnits="userSpaceOnUse">
<stop stop-color="#00AA13"/>
<stop offset="1" stop-color="#97D700"/>
</linearGradient>
<linearGradient id="paint1_linear" x1="22.7609" y1="241.429" x2="34.0427" y2="233.085" gradientUnits="userSpaceOnUse">
<stop stop-color="#00AA13"/>
<stop offset="1" stop-color="#97D700"/>
</linearGradient>
<linearGradient id="paint2_linear" x1="55913.6" y1="152075" x2="55913.6" y2="69845.9" gradientUnits="userSpaceOnUse">
<stop stop-color="#808080" stop-opacity="0.25"/>
<stop offset="0.54" stop-color="#808080" stop-opacity="0.12"/>
<stop offset="1" stop-color="#808080" stop-opacity="0.1"/>
</linearGradient>
<clipPath id="clip0">
<rect width="436" height="329" fill="white"/>
</clipPath>
</defs>
</svg>
