<svg width="64" height="23" viewBox="0 0 64 23" fill="none" xmlns="http://www.w3.org/2000/svg">
<g opacity="0.7">
<path d="M0.403423 2.67948L1.03757 2.45326C1.14533 2.41136 1.24895 2.37785 1.34843 2.35271C1.45619 2.3192 1.55981 2.2815 1.65928 2.2396L2.29343 2.02595L2.92758 1.82486C3.35034 1.6908 3.77311 1.56094 4.19587 1.43526C4.61864 1.30958 5.04555 1.18809 5.4766 1.07079L6.11075 0.907403C6.16878 0.890646 6.22266 0.878079 6.2724 0.8697C6.33042 0.852943 6.38431 0.836185 6.43404 0.819428C6.49207 0.802671 6.54595 0.790103 6.59569 0.781724C6.65371 0.764967 6.71174 0.74821 6.76977 0.731453C6.98529 0.681181 7.20082 0.630909 7.41635 0.580637C7.63188 0.530366 7.85155 0.484284 8.07537 0.442391C8.29089 0.392119 8.51056 0.350226 8.73438 0.316712C8.9582 0.274819 9.18201 0.237115 9.40583 0.2036C9.62965 0.161707 9.85347 0.128193 10.0773 0.103057C10.3011 0.0779208 10.5291 0.0569743 10.7612 0.0402173C11.2088 0.00670328 11.6689 -0.00586472 12.1414 0.00251328C12.3735 0.0108923 12.6056 0.0234603 12.8377 0.0402173C13.0781 0.0569743 13.3185 0.0862993 13.5589 0.128192C13.7993 0.170086 14.0355 0.224547 14.2676 0.291575C14.508 0.350226 14.7484 0.425634 14.9888 0.517798C15.0551 0.534556 15.1132 0.555502 15.1629 0.580637C15.2209 0.605773 15.2831 0.635099 15.3494 0.668613L15.6976 0.844564C15.8136 0.911593 15.9255 0.982811 16.0333 1.05822C16.1493 1.13363 16.2613 1.21741 16.369 1.30958C16.4851 1.40174 16.5887 1.4981 16.6799 1.59864C16.7794 1.69918 16.8747 1.8081 16.9659 1.9254C17.1482 2.16001 17.2933 2.40717 17.4011 2.66691C17.5254 2.90989 17.6124 3.17382 17.6622 3.45869C17.6788 3.52572 17.6912 3.59694 17.6995 3.67234C17.7078 3.73937 17.7202 3.8064 17.7368 3.87343C17.7451 3.94046 17.7492 4.00749 17.7492 4.07452C17.7575 4.13317 17.7617 4.19601 17.7617 4.26304C17.7699 4.39709 17.7699 4.53115 17.7617 4.66521C17.7617 4.79089 17.7534 4.91657 17.7368 5.04225C17.7368 5.08414 17.7326 5.11347 17.7244 5.13022L17.7119 5.23077L17.6871 5.40672C17.6788 5.47375 17.6705 5.53659 17.6622 5.59524C17.6539 5.64551 17.6415 5.69997 17.6249 5.75862C17.542 6.21944 17.4218 6.68027 17.2643 7.14109C17.1068 7.59353 16.9244 8.02922 16.7172 8.44815C16.5099 8.86708 16.2861 9.27345 16.0457 9.66724C15.8053 10.061 15.5442 10.4381 15.2624 10.7984C14.9888 11.1586 14.7028 11.5105 14.4044 11.8541C13.7993 12.5411 13.161 13.1737 12.4895 13.7518C12.1414 14.0451 11.7932 14.3299 11.4451 14.6064C11.0969 14.8829 10.7363 15.1468 10.3633 15.3982C9.99024 15.6496 9.61307 15.8884 9.23175 16.1146C8.85043 16.3408 8.46083 16.5586 8.06293 16.7681C7.66503 16.9692 7.26299 17.1577 6.85681 17.3337C6.45062 17.518 6.03615 17.6814 5.61338 17.8238C5.39785 17.8992 5.18233 17.9663 4.9668 18.0249C4.75956 18.0919 4.54818 18.1548 4.33265 18.2134L3.67364 18.3642C3.6239 18.3726 3.57002 18.381 3.51199 18.3894C3.46225 18.3978 3.40837 18.4103 3.35034 18.4271L2.67889 18.5276C2.62087 18.536 2.56284 18.5402 2.50481 18.5402C2.45508 18.5486 2.4012 18.5528 2.34317 18.5528C2.22712 18.5695 2.11521 18.5779 2.00744 18.5779C1.89968 18.5863 1.78777 18.5946 1.67172 18.603C1.21579 18.6114 0.759872 18.5863 0.303949 18.5276C0.212764 18.5109 0.134014 18.4648 0.0676977 18.3894C0.0096711 18.3223 -0.0110527 18.2386 0.00552634 18.138C0.0221054 18.0458 0.0676977 17.9663 0.142303 17.8992C0.216909 17.8406 0.299804 17.8196 0.390989 17.8364C0.399278 17.8364 0.403423 17.8364 0.403423 17.8364C0.403423 17.8448 0.407568 17.849 0.415857 17.849C0.623095 17.8908 0.830333 17.9202 1.03757 17.9369C1.24481 17.9537 1.45619 17.9663 1.67172 17.9746C1.77948 17.9746 1.8831 17.9704 1.98257 17.9621C2.09034 17.9621 2.1981 17.9579 2.30587 17.9495C2.3556 17.9495 2.40534 17.9453 2.45508 17.9369C2.5131 17.9369 2.56699 17.9327 2.61672 17.9244C2.67475 17.9244 2.72863 17.9202 2.77837 17.9118C2.8281 17.9118 2.88199 17.9076 2.94001 17.8992C3.36278 17.8406 3.7814 17.761 4.19587 17.6604C4.61035 17.5599 5.02483 17.4384 5.4393 17.296C6.25167 17.0027 7.03918 16.655 7.80181 16.2528C8.55616 15.8423 9.28563 15.3815 9.99024 14.8704C10.3467 14.6106 10.6866 14.3383 11.0099 14.0534C11.3414 13.7769 11.6647 13.4879 11.9797 13.1863C12.2864 12.8846 12.5807 12.5746 12.8626 12.2562C13.1444 11.9378 13.4138 11.6027 13.6708 11.2508C14.1847 10.5638 14.6324 9.839 15.0137 9.07655C15.2043 8.69951 15.3701 8.31409 15.5111 7.9203C15.6603 7.52651 15.7805 7.12852 15.8717 6.72635C15.9214 6.52526 15.9628 6.32417 15.996 6.12309C16.0374 5.922 16.0665 5.72091 16.083 5.51983L16.1203 5.2182V5.06738L16.1328 4.99198V4.92914C16.1328 4.83697 16.1328 4.74481 16.1328 4.65264C16.1328 4.56048 16.1245 4.46831 16.1079 4.37615C16.1079 4.29236 16.0955 4.20439 16.0706 4.11222C16.054 4.01168 16.0374 3.92789 16.0209 3.86086C15.996 3.78546 15.9711 3.71005 15.9463 3.63464C15.9214 3.55923 15.8882 3.48802 15.8468 3.42099C15.7639 3.27017 15.681 3.1403 15.5981 3.03138C15.5484 2.97273 15.4945 2.91827 15.4365 2.868C15.3784 2.80935 15.3163 2.75489 15.2499 2.70461C15.1422 2.62083 15.0054 2.52866 14.8396 2.42812L14.6034 2.31501L14.3547 2.21447C14.2635 2.18095 14.1723 2.15163 14.0811 2.12649C13.9982 2.10136 13.9112 2.07622 13.82 2.05108C13.7288 2.02595 13.6335 2.005 13.534 1.98824C13.4428 1.96311 13.3475 1.94216 13.248 1.9254C12.8584 1.85 12.4605 1.79973 12.0543 1.77459C11.8471 1.75783 11.6399 1.74526 11.4326 1.73689C11.2337 1.72851 11.0264 1.72432 10.8109 1.72432C10.413 1.72432 10.011 1.7327 9.60478 1.74945C9.20688 1.75783 8.80899 1.77878 8.41109 1.81229C8.61833 1.89608 8.77583 2.03852 8.88359 2.2396C8.99136 2.44069 9.02037 2.65015 8.97063 2.868C8.97063 2.88476 8.96234 2.90989 8.94576 2.94341L5.07871 15.3102C5.05384 15.4024 4.99581 15.4694 4.90463 15.5113C4.82173 15.5616 4.73469 15.57 4.64351 15.5365C4.55232 15.5113 4.48601 15.461 4.44456 15.3856C4.40311 15.3102 4.39482 15.2264 4.41969 15.1343L7.20497 2.46582C7.2547 2.21447 7.38734 2.02176 7.60286 1.8877C7.28786 1.92959 6.96872 1.97149 6.64542 2.01338C6.33042 2.04689 6.01542 2.08879 5.70042 2.13906C5.26937 2.20609 4.84246 2.28568 4.41969 2.37785C3.99693 2.46164 3.57416 2.5538 3.1514 2.65434L2.51725 2.80516L1.8831 2.96854L1.24895 3.14449C1.19922 3.16125 1.14948 3.17801 1.09974 3.19476C1.05 3.20314 0.996123 3.21571 0.938096 3.23247C0.888359 3.24923 0.838622 3.26598 0.788885 3.28274C0.739148 3.2995 0.685266 3.31625 0.62724 3.33301C0.536055 3.36653 0.449015 3.36234 0.36612 3.32044C0.283225 3.27017 0.229343 3.19895 0.204475 3.10679C0.171317 3.01462 0.175461 2.93084 0.216909 2.85543C0.258356 2.77164 0.320528 2.71299 0.403423 2.67948Z" fill="#242424"/>
<path d="M20.2023 10.5596L20.2396 10.6098C20.2479 10.6182 20.2562 10.6224 20.2644 10.6224C20.281 10.6308 20.3017 10.635 20.3266 10.635C20.3432 10.635 20.3764 10.6266 20.4261 10.6098C20.4427 10.6015 20.4634 10.5973 20.4883 10.5973C20.5131 10.5889 20.5339 10.5763 20.5504 10.5596L20.6748 10.4842L20.7991 10.3836C20.882 10.3082 20.9608 10.2286 21.0354 10.1448C21.11 10.0694 21.1846 9.98144 21.2592 9.88089C21.3421 9.78873 21.4125 9.69238 21.4706 9.59183L21.57 9.44102C21.5866 9.4075 21.5991 9.37818 21.6073 9.35304C21.6239 9.32791 21.6405 9.30277 21.6571 9.27763C21.6737 9.2525 21.6861 9.22736 21.6944 9.20223C21.711 9.17709 21.7275 9.14777 21.7441 9.11425C21.7607 9.08912 21.7731 9.06398 21.7814 9.03884C21.798 9.01371 21.8146 8.98438 21.8312 8.95087L21.9804 8.6241C22.0218 8.5068 22.0964 8.42721 22.2042 8.38531C22.3202 8.33504 22.4363 8.33504 22.5523 8.38531C22.6601 8.42721 22.7347 8.50261 22.7762 8.61154C22.8259 8.72046 22.83 8.83357 22.7886 8.95087L22.7513 9.02628H22.7389C22.7057 9.08493 22.6725 9.14358 22.6394 9.20223C22.6062 9.2525 22.5689 9.30696 22.5275 9.36561L22.428 9.52899L21.8685 10.3459C21.827 10.4046 21.7856 10.459 21.7441 10.5093C21.7027 10.5596 21.6571 10.6098 21.6073 10.6601C21.5162 10.7858 21.4208 10.8905 21.3214 10.9743L21.1597 11.1251C21.1348 11.1503 21.1058 11.1754 21.0727 11.2005C21.0478 11.2173 21.0146 11.2382 20.9732 11.2634L20.7618 11.389C20.7038 11.4226 20.6167 11.4519 20.5007 11.477C20.4095 11.5022 20.3059 11.5147 20.1898 11.5147C20.0738 11.498 19.966 11.4728 19.8665 11.4393C19.85 11.4309 19.8375 11.4267 19.8292 11.4267C19.821 11.4267 19.8127 11.4226 19.8044 11.4142C19.7629 11.5063 19.7132 11.5985 19.6552 11.6907C19.6054 11.7745 19.5557 11.8582 19.506 11.942C19.4396 12.0426 19.3692 12.1431 19.2946 12.2437C19.22 12.3442 19.1371 12.4447 19.0459 12.5453L18.7599 12.8218C18.7019 12.8637 18.6397 12.9056 18.5734 12.9475C18.5154 12.981 18.449 13.0145 18.3744 13.048C18.2833 13.0815 18.2004 13.1025 18.1257 13.1108C18.1009 13.1192 18.0594 13.1234 18.0014 13.1234L17.9765 13.136H17.9268C17.9185 13.136 17.9102 13.136 17.9019 13.136C17.8936 13.1276 17.8812 13.1234 17.8646 13.1234C17.7734 13.1234 17.6823 13.1067 17.5911 13.0731C17.5496 13.0564 17.5082 13.0354 17.4667 13.0103C17.417 12.9852 17.3714 12.9558 17.33 12.9223C17.2471 12.8469 17.1807 12.7673 17.131 12.6835C17.1061 12.6416 17.0896 12.6039 17.0813 12.5704C17.0647 12.5285 17.0481 12.4866 17.0315 12.4447C16.9818 12.2939 16.9569 12.1473 16.9569 12.0049C16.9486 11.9378 16.9486 11.875 16.9569 11.8164C16.9569 11.7493 16.9611 11.6823 16.9694 11.6153C16.9777 11.5482 16.9859 11.4854 16.9942 11.4267C16.9942 11.3681 17.0025 11.3053 17.0191 11.2382L17.131 10.7104C17.1476 10.6601 17.1642 10.6015 17.1807 10.5344L17.4046 9.85576L17.6905 9.20223C17.7817 8.99276 17.8936 8.77492 18.0263 8.54869C18.0677 8.49004 18.105 8.43558 18.1382 8.38531C18.1631 8.32666 18.1962 8.2722 18.2377 8.22193L18.3744 8.05855C18.391 8.02503 18.4117 7.99571 18.4366 7.97057C18.4615 7.94544 18.4863 7.91611 18.5112 7.8826L18.6977 7.71921C18.7392 7.69408 18.7765 7.66894 18.8096 7.64381C18.8511 7.61029 18.8967 7.58097 18.9464 7.55583C18.9961 7.53069 19.05 7.50975 19.1081 7.49299C19.1661 7.46785 19.2324 7.44691 19.307 7.43015C19.3485 7.42177 19.3858 7.41758 19.4189 7.41758C19.4604 7.41758 19.5018 7.41758 19.5433 7.41758C19.593 7.41758 19.6344 7.42177 19.6676 7.43015H19.7173L19.7298 7.44272H19.7795C19.995 7.46785 20.1691 7.5684 20.3017 7.74435C20.4427 7.9203 20.5007 8.1172 20.4758 8.33504L20.451 8.44815C20.4675 8.49005 20.4841 8.55289 20.5007 8.63667C20.509 8.67856 20.5131 8.72465 20.5131 8.77492C20.5214 8.81681 20.5256 8.8587 20.5256 8.9006V9.13939C20.5173 9.20642 20.509 9.27763 20.5007 9.35304C20.5007 9.42007 20.4924 9.4871 20.4758 9.55413L20.3888 9.93117C20.3556 10.0401 20.3225 10.1448 20.2893 10.2454C20.2644 10.3459 20.2313 10.4464 20.1898 10.547C20.1898 10.5554 20.194 10.5596 20.2023 10.5596ZM18.6231 9.73008C18.5651 9.82224 18.5112 9.91441 18.4615 10.0066C18.4034 10.0904 18.3496 10.1783 18.2998 10.2705C18.2004 10.4464 18.1133 10.635 18.0387 10.8361L17.989 10.9743L17.9392 11.1251C17.9227 11.1754 17.9102 11.2257 17.9019 11.2759C17.8854 11.3262 17.8688 11.3723 17.8522 11.4142C17.8356 11.4645 17.8273 11.5147 17.8273 11.565C17.819 11.6153 17.8107 11.6613 17.8025 11.7032C17.7942 11.7535 17.79 11.8038 17.79 11.8541C17.7817 11.8959 17.7776 11.9378 17.7776 11.9797C17.7776 12.0468 17.7859 12.1222 17.8025 12.206C17.819 12.2395 17.8273 12.2604 17.8273 12.2688C17.8439 12.2856 17.8522 12.2939 17.8522 12.2939L17.8646 12.3065H17.989C18.0056 12.3065 18.0304 12.2981 18.0636 12.2814C18.1216 12.2479 18.1796 12.2101 18.2377 12.1683L18.4242 11.9797C18.4573 11.9295 18.4863 11.8918 18.5112 11.8666L18.735 11.4896C18.7765 11.3974 18.8179 11.3053 18.8594 11.2131C18.9008 11.1209 18.9381 11.0246 18.9713 10.924C18.9879 10.857 19.0044 10.79 19.021 10.7229C19.0459 10.6475 19.0666 10.5763 19.0832 10.5093C19.0335 10.3836 18.9961 10.2579 18.9713 10.1323C18.9381 9.99819 18.9133 9.85157 18.8967 9.69238L18.8594 9.46615V9.41588C18.8179 9.46615 18.7765 9.52061 18.735 9.57926C18.7019 9.62954 18.6646 9.67981 18.6231 9.73008Z" fill="#242424"/>
<path d="M23.18 9.13939L23.1427 9.20223L23.1054 9.27763L23.0308 9.41588L22.894 9.69238L22.6453 10.2579L22.4215 10.8361C22.3883 10.9366 22.3552 11.0371 22.322 11.1377C22.2889 11.2299 22.2599 11.3262 22.235 11.4267C22.2018 11.5189 22.1728 11.6153 22.1479 11.7158C22.1148 11.8164 22.0899 11.9169 22.0733 12.0174L21.9987 12.3065L21.949 12.6081L21.9117 12.8846C21.9117 12.9349 21.9117 12.981 21.9117 13.0229C21.9034 13.0648 21.9034 13.1067 21.9117 13.1486V13.1611C21.9448 13.1444 21.9904 13.1067 22.0485 13.048L22.2225 12.8469C22.2557 12.8134 22.2847 12.7799 22.3096 12.7464C22.3345 12.7045 22.3593 12.6626 22.3842 12.6207C22.4174 12.5872 22.4464 12.5453 22.4712 12.495L22.695 12.118C22.7448 12.0258 22.7904 11.9378 22.8318 11.8541C22.8816 11.7619 22.9272 11.6697 22.9686 11.5776C23.0515 11.3849 23.1261 11.1963 23.1924 11.012C23.267 10.8193 23.3375 10.6266 23.4038 10.4339L23.5779 9.84319C23.5945 9.79292 23.6069 9.74265 23.6152 9.69238C23.6235 9.6421 23.6359 9.59183 23.6525 9.54156L23.6649 9.49129V9.44102L23.6774 9.45358L23.6898 9.39075L23.7022 9.31534L23.7147 9.27763V9.23993C23.7312 9.03046 23.8183 8.86289 23.9758 8.73721C24.1333 8.60316 24.3115 8.54451 24.5105 8.56126C24.6845 8.57802 24.8296 8.64086 24.9457 8.74978C25.07 8.8587 25.1487 8.99695 25.1819 9.16452C25.2234 9.35723 25.2275 9.54156 25.1943 9.71751C25.1612 9.89346 25.1363 10.0108 25.1197 10.0694C25.0949 10.1364 25.07 10.2077 25.0451 10.2831C25.0285 10.3585 25.012 10.4339 24.9954 10.5093C24.9788 10.5763 24.9622 10.6475 24.9457 10.7229C24.9374 10.7984 24.9249 10.8738 24.9083 10.9492C24.8918 11.0246 24.8793 11.1 24.871 11.1754C24.8628 11.2424 24.8545 11.3136 24.8462 11.389C24.8296 11.4561 24.8213 11.5273 24.8213 11.6027C24.8213 11.6781 24.8213 11.7493 24.8213 11.8164V11.9672L24.9208 11.8541C24.9457 11.8373 24.9705 11.8164 24.9954 11.7912C25.0203 11.7577 25.041 11.7284 25.0576 11.7032L25.1943 11.5399L25.3311 11.3513L25.4555 11.1754C25.5384 11.0497 25.6171 10.924 25.6917 10.7984C25.7746 10.6643 25.8492 10.5302 25.9155 10.3962C26.0564 10.1448 26.1932 9.87251 26.3259 9.57926C26.3673 9.51223 26.4005 9.44521 26.4253 9.37818C26.4502 9.30277 26.4792 9.23155 26.5124 9.16452C26.529 9.11425 26.5455 9.07655 26.5621 9.05141L26.5994 8.95087L26.6367 8.83776L26.6616 8.78749C26.6616 8.77911 26.6616 8.77073 26.6616 8.76235C26.6699 8.75397 26.674 8.74559 26.674 8.73721C26.7155 8.61991 26.7859 8.53613 26.8854 8.48586C26.9849 8.4272 27.0926 8.41883 27.2087 8.46072C27.3165 8.49423 27.3952 8.56126 27.4449 8.66181C27.503 8.76235 27.5154 8.87127 27.4822 8.98857C27.4657 9.03047 27.4491 9.05979 27.4325 9.07655V9.08912L27.3703 9.18966L27.3082 9.30277L27.1838 9.50386L26.96 9.90603L26.4875 10.7229C26.4129 10.8654 26.3341 11.0036 26.2513 11.1377C26.1766 11.2634 26.0979 11.3974 26.015 11.5399L25.8782 11.7409L25.7539 11.942C25.7041 12.0091 25.6544 12.0761 25.6047 12.1431C25.5632 12.2101 25.5135 12.2772 25.4555 12.3442L25.2814 12.5453L25.1695 12.6333C25.128 12.6752 25.0824 12.7087 25.0327 12.7338C24.983 12.7673 24.9249 12.7966 24.8586 12.8218L24.7343 12.8595H24.5602C24.5187 12.8511 24.4814 12.8427 24.4483 12.8344C24.4234 12.8176 24.3944 12.8008 24.3612 12.7841C24.2949 12.7338 24.2535 12.6961 24.2369 12.671C24.212 12.6458 24.183 12.6081 24.1499 12.5579C24.1416 12.5411 24.1333 12.5285 24.125 12.5202C24.125 12.5034 24.1167 12.4866 24.1001 12.4699L24.038 12.3065L24.0006 12.1683L23.9385 11.9169C23.8887 11.9839 23.8556 12.0342 23.839 12.0677L23.4784 12.6081C23.3458 12.8008 23.2173 12.981 23.0929 13.1486L22.8691 13.4125L22.6204 13.6764C22.5707 13.7183 22.521 13.756 22.4712 13.7895C22.4215 13.8314 22.3635 13.8733 22.2972 13.9152C22.2225 13.9571 22.1521 13.9906 22.0858 14.0157L21.949 14.0534C21.9241 14.0534 21.9034 14.0576 21.8868 14.066H21.7252C21.6754 14.066 21.6381 14.0618 21.6133 14.0534C21.547 14.0283 21.4765 13.9948 21.4019 13.9529C21.3439 13.911 21.2941 13.8565 21.2527 13.7895L21.1656 13.6513C21.1491 13.6094 21.1366 13.5675 21.1283 13.5256C21.12 13.4837 21.1118 13.446 21.1035 13.4125C21.0952 13.3706 21.091 13.3329 21.091 13.2994C21.0827 13.2742 21.0786 13.2407 21.0786 13.1988C21.0703 13.1318 21.0662 13.0731 21.0662 13.0229C21.0662 12.9642 21.0662 12.9014 21.0662 12.8344L21.091 12.495L21.1283 12.1683L21.1781 11.8415C21.1946 11.7326 21.2112 11.6278 21.2278 11.5273C21.2444 11.4184 21.261 11.3094 21.2775 11.2005L21.5014 9.93117L21.6008 9.2902C21.6174 9.23155 21.6298 9.17709 21.6381 9.12682C21.6381 9.07655 21.6423 9.02209 21.6506 8.96344L21.6754 8.80005L21.6879 8.72465L21.7003 8.63667V8.59897C21.7335 8.38112 21.8371 8.20517 22.0112 8.07111C22.1852 7.92868 22.3842 7.87422 22.608 7.90773C22.8235 7.94125 22.9976 8.04598 23.1303 8.22193C23.2712 8.39788 23.3251 8.59478 23.2919 8.81262C23.2836 8.92992 23.2463 9.03884 23.18 9.13939Z" fill="#242424"/>
<path d="M26.698 8.63667L29.5082 3.29531V3.28274L29.5828 3.14449C29.6822 2.94341 29.8356 2.80935 30.0428 2.74232C30.2584 2.67529 30.4656 2.69624 30.6645 2.80516C30.8303 2.89732 30.9505 3.03138 31.0251 3.20733C31.0997 3.38328 31.108 3.56342 31.05 3.74775L31.0251 3.86086L30.963 4.01168L30.8884 4.17506L30.764 4.47669C30.7226 4.58561 30.6811 4.69454 30.6397 4.80346C30.5982 4.904 30.5568 5.00454 30.5153 5.10509L30.0304 6.36188C29.7817 7.00703 29.5455 7.64799 29.3216 8.28477L29.4087 8.18423L29.6076 7.98314C29.6325 7.96638 29.6532 7.94962 29.6698 7.93287C29.6947 7.91611 29.7195 7.89935 29.7444 7.8826C29.8024 7.8407 29.8605 7.80719 29.9185 7.78205C29.9765 7.74854 30.0511 7.7234 30.1423 7.70665C30.192 7.68989 30.2293 7.68151 30.2542 7.68151H30.2666C30.2584 7.68151 30.2666 7.67732 30.2915 7.66894H30.4034C30.4449 7.66894 30.507 7.67732 30.5899 7.69408C30.648 7.71083 30.7101 7.73597 30.7764 7.76948C30.8262 7.79462 30.8718 7.82814 30.9132 7.87003C30.9547 7.89516 30.992 7.92868 31.0251 7.97057L31.0997 8.05855L31.1743 8.20936L31.2241 8.33504L31.2738 8.52356C31.2738 8.5487 31.2738 8.57383 31.2738 8.59897C31.2821 8.6241 31.2863 8.64924 31.2863 8.67437C31.2945 8.71627 31.2987 8.75816 31.2987 8.80005C31.2987 8.84195 31.2987 8.88384 31.2987 8.92573C31.2987 8.96763 31.2945 9.00533 31.2863 9.03884C31.2863 9.07236 31.2863 9.11006 31.2863 9.15196C31.278 9.22736 31.2697 9.30277 31.2614 9.37818C31.2614 9.44521 31.2531 9.51223 31.2365 9.57926L31.1992 9.78035L31.3857 9.57926L31.8707 9.07655L32.1194 8.82519L32.3556 8.57383C32.4302 8.49005 32.5214 8.44815 32.6292 8.44815C32.7369 8.43977 32.8281 8.47329 32.9027 8.54869C32.9856 8.6241 33.0271 8.71627 33.0271 8.82519C33.0353 8.93411 33.0022 9.02628 32.9276 9.10168L32.4551 9.62954L31.9701 10.1448C31.8043 10.3208 31.6386 10.4925 31.4728 10.6601C31.3153 10.8277 31.1536 10.9952 30.9878 11.1628L30.6024 11.565C30.5443 11.6739 30.4822 11.7786 30.4159 11.8792C30.3578 11.9797 30.2957 12.0845 30.2293 12.1934C30.1464 12.3191 30.0594 12.428 29.9682 12.5202C29.9185 12.5788 29.8687 12.6375 29.819 12.6961C29.7693 12.7464 29.7112 12.7925 29.6449 12.8344C29.5786 12.8846 29.5123 12.9349 29.446 12.9852C29.3797 13.0271 29.3092 13.0648 29.2346 13.0983C29.1932 13.115 29.1517 13.1318 29.1103 13.1486C29.0688 13.1653 29.0274 13.1779 28.9859 13.1863C28.961 13.1946 28.9362 13.1988 28.9113 13.1988C28.8947 13.2072 28.874 13.2114 28.8491 13.2114C28.8243 13.2198 28.7787 13.224 28.7124 13.224V13.2365C28.5963 13.2533 28.4885 13.224 28.3891 13.1486C28.2896 13.0731 28.2316 12.9768 28.215 12.8595C28.1984 12.8092 28.1984 12.7548 28.215 12.6961L27.8171 13.5005L27.6679 13.8398C27.6513 13.8984 27.6306 13.9529 27.6057 14.0032C27.5808 14.0618 27.556 14.1205 27.5311 14.1791C27.4897 14.2797 27.4192 14.3467 27.3197 14.3802C27.2202 14.4221 27.1208 14.4221 27.0213 14.3802C26.9384 14.3383 26.8762 14.2797 26.8348 14.2043C26.7933 14.1288 26.7809 14.0451 26.7975 13.9529V13.9278C26.8721 13.4753 26.955 13.0271 27.0462 12.583C27.1291 12.1306 27.2161 11.6781 27.3073 11.2257C27.4068 10.7732 27.5104 10.3291 27.6181 9.89346C27.7259 9.4494 27.8378 9.00114 27.9539 8.54869C27.9704 8.46491 27.9912 8.38531 28.016 8.30991C28.0409 8.22612 28.0658 8.13814 28.0906 8.04598L27.3695 9.06398C27.3031 9.15614 27.2161 9.21061 27.1083 9.22736C27.0089 9.24412 26.9135 9.21898 26.8224 9.15196C26.7395 9.09331 26.6897 9.0179 26.6731 8.92573C26.6483 8.82519 26.6566 8.72884 26.698 8.63667ZM28.3642 12.4573C28.4803 12.3652 28.588 12.273 28.6875 12.1808C28.7953 12.0887 28.903 11.9923 29.0108 11.8918C29.0439 11.8415 29.073 11.7912 29.0978 11.7409C29.1227 11.6823 29.1517 11.6236 29.1849 11.565C29.2263 11.4728 29.2636 11.3765 29.2968 11.2759C29.3382 11.1754 29.3797 11.0707 29.4211 10.9617L29.5703 10.4465C29.4377 10.6392 29.3092 10.8277 29.1849 11.012C29.0688 11.1963 28.9528 11.3849 28.8367 11.5776C28.7455 11.7284 28.6543 11.8834 28.5632 12.0426C28.4803 12.1934 28.3974 12.3484 28.3145 12.5076L28.3642 12.4573ZM30.5526 9.13939L30.5402 9.15196C30.5568 9.14358 30.5651 9.13939 30.5651 9.13939C30.5651 9.13101 30.5609 9.13101 30.5526 9.13939Z" fill="#242424"/>
<path d="M32.3086 8.76235C32.3086 8.73721 32.3127 8.72046 32.321 8.71208L32.3335 8.67437L32.3583 8.5864L32.4205 8.42302C32.4371 8.36437 32.4578 8.3099 32.4827 8.25963C32.5075 8.20098 32.5324 8.14233 32.5573 8.08368C32.5987 7.97476 32.6443 7.87003 32.694 7.76948C32.7438 7.66056 32.7935 7.55583 32.8433 7.45529C33.0505 7.03636 33.266 6.6258 33.4898 6.22363C33.8131 5.65389 34.1323 5.10928 34.4473 4.5898C34.4804 4.49764 34.5094 4.40128 34.5343 4.30074C34.5675 4.2002 34.6048 4.10384 34.6462 4.01168L34.87 3.34558L35.1187 2.69205L35.4047 2.02595L35.5664 1.69918C35.6244 1.56512 35.6866 1.44782 35.7529 1.34728L35.8648 1.15876L36.0264 0.957675C36.043 0.940918 36.0596 0.919972 36.0762 0.894836C36.0927 0.8697 36.1135 0.848754 36.1383 0.831996C36.1715 0.798482 36.1964 0.777535 36.2129 0.769157L36.3124 0.693749L36.387 0.643478L36.4616 0.605774L36.5611 0.56807C36.5943 0.551313 36.6316 0.542935 36.673 0.542935C36.7227 0.526177 36.7683 0.517798 36.8098 0.517798H36.959L37.1579 0.555502C37.1911 0.572259 37.2243 0.589016 37.2574 0.605774C37.2989 0.622531 37.3403 0.643478 37.3818 0.668613C37.4647 0.718885 37.5393 0.781725 37.6056 0.857132C37.647 0.899025 37.676 0.940918 37.6926 0.982811C37.7175 1.01633 37.7382 1.05403 37.7548 1.09592C37.7714 1.13782 37.7838 1.17552 37.7921 1.20903C37.8004 1.24255 37.8087 1.27606 37.817 1.30958L37.8418 1.47296C37.8418 1.53161 37.8377 1.5735 37.8294 1.59864V1.69918L37.8045 1.78716C37.7962 1.89608 37.7714 1.98824 37.7299 2.06365L37.6553 2.27731L37.4812 2.64178L37.2947 2.96854L37.1082 3.27017C37.0751 3.32882 37.0419 3.38328 37.0087 3.43355C36.9839 3.47545 36.9549 3.52153 36.9217 3.5718C36.7891 3.77289 36.6564 3.96979 36.5238 4.16249C36.3995 4.34682 36.271 4.53115 36.1383 4.71548L35.9643 4.96684L35.8772 5.18049L35.6534 5.80889C35.3384 6.66351 35.04 7.51813 34.7581 8.37274L33.8504 10.9492C33.7758 11.167 33.7012 11.3807 33.6266 11.5901C33.552 11.7912 33.4733 12.0007 33.3904 12.2185L33.465 12.1431C33.639 11.9588 33.809 11.7786 33.9748 11.6027C34.1406 11.4184 34.3064 11.2298 34.4721 11.0371C34.7954 10.6601 35.1063 10.2705 35.4047 9.86833C35.5539 9.66724 35.6948 9.46615 35.8275 9.26507C35.9684 9.0556 36.1052 8.84195 36.2378 8.6241C36.2875 8.5487 36.3539 8.50261 36.4368 8.48586C36.5279 8.46072 36.615 8.4691 36.6979 8.51099C36.7725 8.56126 36.8181 8.63248 36.8347 8.72465C36.8595 8.80843 36.8471 8.89222 36.7974 8.976C36.6647 9.19385 36.5238 9.41169 36.3746 9.62954C36.2337 9.839 36.0886 10.0485 35.9394 10.2579C35.7819 10.4674 35.6202 10.6769 35.4545 10.8863C35.297 11.0874 35.1353 11.2843 34.9695 11.477C34.8037 11.6697 34.6338 11.8624 34.4597 12.0551C34.2939 12.2395 34.1198 12.4238 33.9375 12.6081C33.8463 12.7003 33.7551 12.7925 33.6639 12.8846C33.5727 12.9768 33.4816 13.069 33.3904 13.1611L33.1044 13.425L32.9676 13.5507L32.893 13.6136L32.8184 13.689C32.7521 13.7476 32.6733 13.7728 32.5821 13.7644C32.491 13.756 32.4122 13.7183 32.3459 13.6513C32.263 13.5591 32.2423 13.4544 32.2837 13.3371C32.3252 13.1108 32.3666 12.8846 32.4081 12.6584C32.4495 12.4322 32.491 12.206 32.5324 11.9797C32.5738 11.7619 32.6194 11.5399 32.6692 11.3136C32.7189 11.0874 32.7687 10.8654 32.8184 10.6475C32.9013 10.2705 32.9883 9.89765 33.0795 9.52899C33.1707 9.15196 33.2619 8.77492 33.3531 8.39788C33.2702 8.5068 33.1914 8.61572 33.1168 8.72465C33.0422 8.82519 32.9676 8.92992 32.893 9.03884V9.05141C32.8433 9.12682 32.7728 9.1729 32.6816 9.18966C32.5904 9.20642 32.5075 9.18966 32.4329 9.13939C32.292 9.03884 32.2506 8.91317 32.3086 8.76235Z" fill="#242424"/>
<path d="M36.1448 12.2939C36.1283 12.3945 36.1158 12.495 36.1075 12.5956C36.0993 12.6961 36.0951 12.7925 36.0951 12.8846C36.0951 12.9349 36.0993 12.9852 36.1075 13.0354C36.1075 13.0773 36.1117 13.1192 36.12 13.1611C36.12 13.1946 36.1283 13.2281 36.1448 13.2617L36.1697 13.3496L36.1946 13.3999C36.2029 13.4083 36.207 13.4167 36.207 13.425H36.2692C36.3272 13.425 36.3935 13.4125 36.4681 13.3873C36.5013 13.3706 36.5345 13.3496 36.5676 13.3245C36.6091 13.3077 36.6505 13.2868 36.692 13.2617C36.7666 13.2114 36.8412 13.1527 36.9158 13.0857C36.9987 13.0187 37.0774 12.9517 37.152 12.8846C37.2266 12.8176 37.3012 12.7464 37.3758 12.671C37.4504 12.5956 37.5209 12.516 37.5872 12.4322L37.9976 11.942C38.0639 11.8499 38.126 11.7619 38.1841 11.6781C38.2504 11.5943 38.3167 11.5063 38.383 11.4142L38.756 10.8738C38.8721 10.6894 38.9881 10.5051 39.1042 10.3208C39.2203 10.1364 39.3322 9.94792 39.4399 9.75521L39.7632 9.17709L39.9124 8.88803L40.0243 8.66181L40.0616 8.59897V8.5864C40.1197 8.4691 40.2067 8.39369 40.3228 8.36018C40.4388 8.31828 40.5549 8.32666 40.6709 8.38531C40.787 8.43558 40.8616 8.51937 40.8947 8.63667C40.9362 8.75397 40.932 8.87127 40.8823 8.98857L40.8574 9.02628L40.6834 9.32791L40.4968 9.61697L40.3228 9.89346C40.2896 9.94373 40.2606 9.99401 40.2357 10.0443C40.2109 10.0945 40.1818 10.1406 40.1487 10.1825C40.0243 10.3752 39.9 10.5679 39.7757 10.7606C39.6596 10.945 39.5353 11.1293 39.4026 11.3136C39.3363 11.4058 39.27 11.5022 39.2037 11.6027C39.1457 11.6949 39.0835 11.787 39.0172 11.8792L38.6193 12.4196C38.5529 12.5118 38.4825 12.6039 38.4079 12.6961C38.3333 12.7799 38.2587 12.8679 38.1841 12.96C38.1095 13.0522 38.0349 13.1402 37.9602 13.224C37.8856 13.3077 37.8027 13.3915 37.7116 13.4753C37.5375 13.6596 37.351 13.8188 37.152 13.9529L36.9904 14.066L36.8039 14.1666L36.6049 14.242C36.5635 14.2587 36.5262 14.2713 36.493 14.2797C36.4516 14.288 36.4101 14.2922 36.3687 14.2922C36.3355 14.3006 36.2899 14.3048 36.2319 14.3048H36.12C36.1117 14.3048 36.1075 14.3006 36.1075 14.2922C36.0993 14.2922 36.091 14.2922 36.0827 14.2922C35.9749 14.2755 35.8754 14.2461 35.7843 14.2043C35.6931 14.1456 35.6102 14.0786 35.5356 14.0032C35.5024 13.9613 35.4734 13.9236 35.4485 13.8901C35.4237 13.8565 35.3988 13.8188 35.3739 13.7769C35.3573 13.7351 35.3408 13.6973 35.3242 13.6638C35.3076 13.6387 35.291 13.6052 35.2744 13.5633L35.2123 13.3496C35.1957 13.2826 35.1833 13.2156 35.175 13.1486C35.1667 13.0815 35.1584 13.0145 35.1501 12.9475C35.1335 12.8218 35.1252 12.6961 35.1252 12.5704C35.1169 12.4447 35.1169 12.3233 35.1252 12.206C35.1252 12.1389 35.1294 12.0803 35.1377 12.03C35.1377 11.9714 35.1377 11.9085 35.1377 11.8415L35.175 11.4896C35.1998 11.2466 35.233 11.012 35.2744 10.7858C35.3076 10.5512 35.3532 10.3208 35.4112 10.0945C35.5107 9.61697 35.6516 9.16033 35.834 8.72465C35.8837 8.60735 35.9335 8.49423 35.9832 8.38531C36.0329 8.27639 36.091 8.16328 36.1573 8.04598L36.2568 7.87003L36.3687 7.70665C36.4101 7.63962 36.4557 7.58097 36.5054 7.53069C36.5469 7.47204 36.5966 7.41339 36.6547 7.35474C36.7127 7.27934 36.7749 7.22069 36.8412 7.17879C36.8826 7.14528 36.9199 7.11595 36.9531 7.09082C36.9945 7.0573 37.0443 7.02798 37.1023 7.00284C37.2018 6.94419 37.3261 6.89392 37.4753 6.85203C37.4919 6.85203 37.5085 6.85203 37.5251 6.85203C37.5499 6.84365 37.5706 6.83946 37.5872 6.83946C37.6038 6.83108 37.6245 6.82689 37.6494 6.82689H37.7862C37.8193 6.82689 37.8442 6.83108 37.8608 6.83946C37.8939 6.83946 37.9437 6.84784 38.01 6.86459C38.1095 6.88973 38.2131 6.93581 38.3208 7.00284C38.4203 7.07825 38.4991 7.14947 38.5571 7.2165C38.5737 7.23325 38.5861 7.2542 38.5944 7.27934C38.611 7.29609 38.6234 7.31285 38.6317 7.32961L38.6939 7.43015L38.7809 7.63124L38.8182 7.79462L38.8431 7.94544C38.8514 7.98733 38.8555 8.02922 38.8555 8.07111C38.8555 8.11301 38.8555 8.1549 38.8555 8.19679C38.8555 8.34761 38.8431 8.49004 38.8182 8.6241C38.8016 8.69113 38.7851 8.75816 38.7685 8.82519C38.7602 8.88384 38.7478 8.94249 38.7312 9.00114C38.7063 9.11006 38.6731 9.23155 38.6317 9.36561C38.5985 9.42426 38.5778 9.47872 38.5695 9.52899L38.4949 9.70494C38.4618 9.80549 38.4162 9.91441 38.3581 10.0317L38.2835 10.1951L38.2089 10.371C38.0929 10.6056 37.9561 10.8277 37.7986 11.0371C37.7572 11.0874 37.7157 11.1419 37.6743 11.2005C37.6328 11.2508 37.5872 11.3011 37.5375 11.3513L37.3883 11.4896L37.2018 11.6278L36.9904 11.7409C36.8992 11.7828 36.8039 11.808 36.7044 11.8164H36.5303C36.464 11.7996 36.4018 11.7786 36.3438 11.7535C36.3189 11.7535 36.2982 11.7451 36.2816 11.7284L36.207 11.9923L36.1448 12.2939ZM36.6298 10.9115C36.6381 10.9366 36.6422 10.9617 36.6422 10.9869C36.6588 10.9785 36.6671 10.9701 36.6671 10.9617C36.6754 10.9534 36.6878 10.9408 36.7044 10.924C36.7707 10.8738 36.8204 10.8151 36.8536 10.7481C36.895 10.6894 36.9406 10.614 36.9904 10.5219C37.0318 10.4381 37.065 10.3501 37.0899 10.2579C37.1147 10.1658 37.1354 10.0736 37.152 9.98144C37.152 9.97306 37.152 9.96468 37.152 9.9563C37.1603 9.94792 37.1645 9.93536 37.1645 9.9186V9.88089L37.1769 9.84319L37.2018 9.67981L37.2391 9.36561C37.2391 9.34885 37.2391 9.34047 37.2391 9.34047C37.2474 9.3321 37.2515 9.31953 37.2515 9.30277L37.2142 9.37818C37.1645 9.47034 37.1147 9.56251 37.065 9.65467C37.0235 9.73846 36.9821 9.82643 36.9406 9.9186L36.8039 10.2077L36.692 10.4967L36.6049 10.7104C36.6049 10.7523 36.6049 10.79 36.6049 10.8235C36.6132 10.8486 36.6215 10.8779 36.6298 10.9115Z" fill="#242424"/>
<path d="M41.2477 8.54869H41.1606C41.144 8.54869 41.1192 8.55707 41.086 8.57383C41.0529 8.59059 41.0197 8.61154 40.9865 8.63667C40.9617 8.65343 40.9327 8.67437 40.8995 8.69951C40.8332 8.74978 40.771 8.80843 40.713 8.87546C40.6632 8.93411 40.6094 8.99695 40.5513 9.06398L40.4021 9.26507L40.2529 9.47872C40.2032 9.55413 40.1534 9.62954 40.1037 9.70494C40.054 9.78035 40.0084 9.85576 39.9669 9.93117C39.9255 10.0066 39.884 10.082 39.8426 10.1574C39.8011 10.2328 39.7597 10.3124 39.7182 10.3962L39.4944 10.8738C39.453 10.9575 39.4198 11.0413 39.395 11.1251C39.3618 11.2005 39.3286 11.2801 39.2955 11.3639C39.2623 11.4477 39.2333 11.5315 39.2084 11.6153C39.1753 11.6991 39.1504 11.7828 39.1338 11.8666L39.0717 12.118C39.0468 12.2101 39.0344 12.2981 39.0344 12.3819C39.0178 12.4657 39.0178 12.5453 39.0344 12.6207C39.0426 12.6375 39.0468 12.6542 39.0468 12.671C39.0468 12.6793 39.0551 12.6919 39.0717 12.7087C39.0799 12.7254 39.0841 12.7338 39.0841 12.7338C39.0924 12.7422 39.1048 12.7464 39.1214 12.7464C39.138 12.7631 39.167 12.7631 39.2084 12.7464L39.3079 12.7087L39.4198 12.6458L39.5193 12.5704C39.5856 12.5202 39.6436 12.4615 39.6934 12.3945L39.8675 12.1934C39.9172 12.1264 39.9669 12.0593 40.0167 11.9923C40.0664 11.9169 40.1161 11.8415 40.1659 11.7661C40.2156 11.6907 40.2653 11.6153 40.3151 11.5399C40.3565 11.4645 40.398 11.389 40.4394 11.3136L40.7006 10.8486L40.9368 10.371C41.0197 10.2118 41.0984 10.0527 41.173 9.89346C41.2477 9.73427 41.3223 9.57507 41.3969 9.41588C41.4134 9.36561 41.43 9.31534 41.4466 9.26507C41.4715 9.21479 41.4963 9.16452 41.5212 9.11425C41.4881 9.12263 41.4383 9.12682 41.372 9.12682L41.5212 8.78749L41.3969 8.83776L41.5958 8.33504C41.6124 8.29315 41.629 8.25126 41.6456 8.20936C41.6621 8.16747 41.6787 8.12558 41.6953 8.08368C41.7284 8.12558 41.7492 8.17166 41.7575 8.22193C41.7823 8.1549 41.8072 8.08787 41.8321 8.02084C41.8652 7.94544 41.8984 7.87422 41.9315 7.80719C41.9481 7.82395 41.9647 7.84489 41.9813 7.87003C41.9979 7.88679 42.0144 7.90354 42.031 7.9203L42.23 7.44272L42.6154 6.44985C42.6735 6.30742 42.7273 6.16498 42.7771 6.02254C42.8351 5.87173 42.889 5.7251 42.9387 5.58267L43.0133 5.30617C43.0713 5.06319 43.1294 4.82021 43.1874 4.57723C43.2454 4.32588 43.3076 4.07871 43.3739 3.83573L43.5604 3.09422L43.6475 2.72975L43.6848 2.57894L43.7221 2.46582L43.7469 2.36528L44.0205 2.45326C44.0288 2.44488 44.0288 2.44069 44.0205 2.44069C44.0205 2.43231 44.0246 2.42393 44.0329 2.41555L44.493 2.57894V2.60407L44.7541 2.69205L43.9086 4.67778L43.8464 4.80346L43.6723 5.45699L43.4485 6.2739L43.2496 6.71378L42.603 8.10882L42.8019 7.20393C42.7356 7.3715 42.6652 7.53488 42.5906 7.69408C42.516 7.85327 42.4413 8.01665 42.3667 8.18423L42.5159 7.48042C42.4579 7.6061 42.3999 7.73178 42.3419 7.85746C42.2921 7.98314 42.2424 8.10882 42.1927 8.2345V8.22193C42.2921 7.71921 42.3916 7.22069 42.4911 6.72635C42.5906 6.23201 42.6983 5.73767 42.8144 5.24333C42.8724 5.00035 42.9263 4.75319 42.976 4.50183C43.034 4.25047 43.0962 4.0033 43.1625 3.76032C43.1791 3.65978 43.1998 3.55504 43.2247 3.44612C43.2496 3.3372 43.2786 3.22828 43.3117 3.11936L43.3988 2.76745V2.75489L43.4734 2.50353C43.4817 2.47839 43.4858 2.44488 43.4858 2.40299L43.4983 2.39042L43.5107 2.31501C43.519 2.30663 43.5231 2.29406 43.5231 2.27731L43.7469 2.35271L43.7718 2.31501C43.8215 2.17257 43.9086 2.07203 44.0329 2.01338C44.1656 1.95473 44.3023 1.95473 44.4433 2.01338C44.5842 2.06365 44.6837 2.15163 44.7417 2.27731C44.7997 2.40299 44.808 2.53285 44.7666 2.66691L44.7541 2.69205L45.0525 2.79259L44.9406 3.03138L44.8287 3.28274L44.5925 3.77289L44.1448 4.75319L44.0827 4.87886L43.8962 5.54496C43.7552 6.02254 43.6185 6.50432 43.4858 6.99027C43.3532 7.46785 43.2288 7.94962 43.1128 8.43558C43.0465 8.67856 42.9843 8.92154 42.9263 9.16452C42.8683 9.4075 42.8102 9.65048 42.7522 9.89346C42.6361 10.3878 42.5367 10.8779 42.4538 11.3639C42.404 11.6069 42.3584 11.8499 42.317 12.0928C42.2838 12.3358 42.2507 12.5788 42.2175 12.8218C42.201 12.9307 42.1885 13.0354 42.1802 13.136C42.1719 13.2365 42.1678 13.3413 42.1678 13.4502C42.201 13.3999 42.2341 13.3496 42.2673 13.2994C42.3004 13.2575 42.3336 13.2156 42.3667 13.1737L42.3419 13.3622L42.6652 12.8595C42.8061 12.6416 42.9429 12.4196 43.0755 12.1934C43.2164 11.9672 43.3532 11.7409 43.4858 11.5147L44.2816 10.1323L45.0525 8.73721C45.0857 8.67856 45.1313 8.64086 45.1893 8.6241C45.2473 8.60735 45.3054 8.61572 45.3634 8.64924C45.4214 8.68275 45.4587 8.72884 45.4753 8.78749C45.4919 8.84614 45.4836 8.90479 45.4504 8.96344C45.3261 9.19804 45.2018 9.43264 45.0774 9.66724C44.9531 9.89346 44.8246 10.1239 44.6919 10.3585C44.5593 10.5931 44.4267 10.8277 44.2941 11.0623C44.1697 11.2885 44.0371 11.5189 43.8962 11.7535C43.7635 11.9881 43.6267 12.2185 43.4858 12.4447C43.3532 12.671 43.2164 12.8972 43.0755 13.1234C43.0092 13.2407 42.9387 13.3538 42.8641 13.4628C42.7895 13.5717 42.7149 13.6848 42.6403 13.8021C42.5988 13.8607 42.5574 13.9152 42.5159 13.9655C42.4828 14.0241 42.4455 14.0786 42.404 14.1288L42.3543 14.1917C42.3543 14.2001 42.3543 14.2043 42.3543 14.2043C42.3626 14.2043 42.3667 14.2084 42.3667 14.2168L42.3419 14.2043L42.1554 14.4556C42.1139 14.5143 42.06 14.5436 41.9937 14.5436C41.9274 14.552 41.8694 14.5352 41.8196 14.4933C41.7782 14.4598 41.7492 14.4137 41.7326 14.3551C41.716 14.288 41.7036 14.221 41.6953 14.154C41.687 14.087 41.6787 14.0199 41.6704 13.9529C41.6621 13.8859 41.6538 13.8188 41.6456 13.7518C41.6456 13.6848 41.6456 13.6178 41.6456 13.5507C41.6456 13.4167 41.6456 13.2868 41.6456 13.1611C41.6456 13.0354 41.6538 12.9056 41.6704 12.7715C41.687 12.5202 41.7077 12.2688 41.7326 12.0174C41.7575 11.7577 41.7906 11.5022 41.8321 11.2508C41.8652 10.9994 41.9025 10.7481 41.944 10.4967C41.9854 10.2454 42.0269 9.99819 42.0683 9.75521C42.0932 9.61278 42.1181 9.47034 42.1429 9.32791C42.1678 9.17709 42.1968 9.03047 42.23 8.88803L41.9813 9.37818L42.0807 8.80005C41.9398 9.0933 41.7989 9.38656 41.658 9.67981C41.5171 9.96468 41.372 10.2537 41.2228 10.547L40.7006 11.5022C40.6094 11.653 40.514 11.808 40.4146 11.9672C40.3151 12.118 40.2073 12.2646 40.0913 12.407L39.9048 12.6207C39.8633 12.6626 39.826 12.7003 39.7928 12.7338C39.7597 12.7589 39.7224 12.7883 39.6809 12.8218L39.5566 12.9223L39.4198 12.9977C39.3784 13.0145 39.3245 13.0313 39.2582 13.048L39.1587 13.0731C39.1421 13.0731 39.1214 13.0731 39.0965 13.0731C39.0717 13.0648 39.0509 13.0606 39.0344 13.0606C39.0012 13.0522 38.9598 13.0313 38.91 12.9977C38.8851 12.981 38.8686 12.9642 38.8603 12.9475C38.8437 12.9307 38.8271 12.914 38.8105 12.8972C38.794 12.8721 38.7774 12.8344 38.7608 12.7841L38.7359 12.6961C38.7276 12.6542 38.7235 12.5998 38.7235 12.5327C38.7235 12.4573 38.7276 12.4029 38.7359 12.3693C38.7442 12.1934 38.7774 12.0091 38.8354 11.8164C38.852 11.7242 38.8769 11.6362 38.91 11.5524C38.9349 11.4603 38.9598 11.3681 38.9846 11.2759L39.1711 10.7606C39.2374 10.5931 39.3079 10.4255 39.3825 10.2579C39.4488 10.0904 39.5234 9.92279 39.6063 9.75521C39.6478 9.67143 39.6892 9.59183 39.7307 9.51642C39.7638 9.43264 39.8011 9.34885 39.8426 9.26507C39.884 9.1729 39.9296 9.08912 39.9794 9.01371C40.0291 8.92992 40.0788 8.84614 40.1286 8.76235C40.1534 8.72046 40.1783 8.68275 40.2032 8.64924C40.228 8.60735 40.2571 8.56545 40.2902 8.52356L40.4767 8.2722C40.5182 8.23031 40.5596 8.1926 40.6011 8.15909C40.6425 8.1172 40.6923 8.0753 40.7503 8.03341C40.7834 8.01665 40.8166 7.9999 40.8498 7.98314C40.8829 7.958 40.9202 7.93706 40.9617 7.9203L41.0984 7.8826C41.115 7.87422 41.144 7.87003 41.1855 7.87003H41.2601C41.4425 7.85327 41.5875 7.92449 41.6953 8.08368C41.7119 8.01665 41.7326 7.958 41.7575 7.90773C41.7823 7.84908 41.8031 7.79043 41.8196 7.73178C41.8362 7.74854 41.8528 7.76111 41.8694 7.76948C41.8942 7.77786 41.915 7.79043 41.9315 7.80719C42.0227 7.57259 42.1098 7.34218 42.1927 7.11595C42.2756 6.88135 42.3585 6.64256 42.4413 6.39958C42.5077 6.23201 42.5698 6.06444 42.6279 5.89686C42.6859 5.72929 42.7439 5.56172 42.8019 5.39415L42.976 4.89143C43.0009 4.79927 43.0258 4.71548 43.0506 4.64007C43.0838 4.55629 43.1128 4.4725 43.1377 4.38872C43.1957 4.22114 43.2496 4.05357 43.2993 3.886C43.3573 3.71005 43.4112 3.5341 43.461 3.35815L43.6102 2.85543L43.6848 2.5915V2.57894L43.7469 2.36528V2.35271L44.0205 2.45326C44.0205 2.4365 44.0246 2.42393 44.0329 2.41555V2.40299C44.0578 2.33596 44.0992 2.28987 44.1573 2.26474C44.2236 2.23122 44.2899 2.22703 44.3562 2.25217C44.4225 2.27731 44.4681 2.3192 44.493 2.37785C44.5179 2.4365 44.522 2.49934 44.5054 2.56637C44.4971 2.57475 44.493 2.57894 44.493 2.57894H44.5054L44.493 2.60407L44.7541 2.69205L44.6546 3.01881L44.5427 3.38328L44.3189 4.09965L44.0827 4.87886L43.4485 6.2739C43.3573 6.6258 43.2661 6.97771 43.175 7.32961C43.0921 7.67313 43.0092 8.02084 42.9263 8.37274C42.8019 8.83357 42.69 9.31953 42.5906 9.83062C42.4745 10.325 42.375 10.8151 42.2921 11.3011C42.2507 11.5524 42.2092 11.8038 42.1678 12.0551C42.1346 12.2981 42.1056 12.5411 42.0807 12.7841C42.0559 13.0354 42.0434 13.2826 42.0434 13.5256C42.0352 13.5507 42.031 13.5926 42.031 13.6513C42.0559 13.6178 42.0808 13.5842 42.1056 13.5507C42.1305 13.5256 42.1512 13.4921 42.1678 13.4502V13.5507C42.1595 13.5675 42.1554 13.5968 42.1554 13.6387L42.2424 13.5256L42.3419 13.3622V13.5507C42.3419 13.5591 42.3377 13.5675 42.3294 13.5759C42.3294 13.5842 42.3294 13.5926 42.3294 13.601L42.3543 13.5759C42.5118 13.3413 42.6569 13.1192 42.7895 12.9098C42.9304 12.6835 43.0672 12.4573 43.1998 12.2311C43.3325 12.0049 43.4692 11.7786 43.6102 11.5524C43.7428 11.3178 43.8754 11.0874 44.0081 10.8612C44.1407 10.635 44.2692 10.4046 44.3935 10.17C44.5262 9.93536 44.6588 9.69238 44.7914 9.44102C44.9323 9.18128 45.065 8.93411 45.1893 8.69951C45.2225 8.63248 45.2722 8.61572 45.3385 8.64924C45.3966 8.69113 45.4131 8.7414 45.3883 8.80005C45.2556 9.04303 45.123 9.29439 44.9904 9.55413C44.8577 9.80549 44.7251 10.0485 44.5925 10.2831L43.7967 11.6655C43.664 11.9001 43.5273 12.1306 43.3863 12.3568C43.2537 12.583 43.1169 12.8092 42.976 13.0354C42.8434 13.2449 42.6983 13.4669 42.5408 13.7015L42.3419 13.9906C42.3419 14.0325 42.3419 14.066 42.3419 14.0911C42.3502 14.1247 42.3543 14.1582 42.3543 14.1917C42.3543 14.2001 42.3502 14.2043 42.3419 14.2043L42.2051 14.1791C42.1968 14.1875 42.1927 14.1917 42.1927 14.1917C42.1927 14.2168 42.1968 14.2378 42.2051 14.2545L42.1554 14.242L42.0683 14.3551C42.0269 14.4137 41.973 14.4179 41.9067 14.3676C41.8818 14.3593 41.8694 14.3383 41.8694 14.3048L41.8321 14.1666L41.7823 14.154L41.8196 14.0911L41.7202 14.066L41.8072 13.9655V13.9152C41.7989 13.8482 41.7948 13.7811 41.7948 13.7141C41.7948 13.6555 41.7948 13.5926 41.7948 13.5256C41.7948 13.3999 41.7948 13.2742 41.7948 13.1486C41.8031 13.0229 41.8113 12.8972 41.8196 12.7715C41.8362 12.5118 41.8611 12.2562 41.8942 12.0049C41.9274 11.7535 41.9647 11.5063 42.0061 11.2634C42.0808 10.7439 42.1678 10.2454 42.2673 9.76778C42.3087 9.51642 42.3543 9.26926 42.404 9.02628C42.4621 8.77492 42.5159 8.52775 42.5657 8.28477L42.603 8.10882C42.5533 8.20098 42.5035 8.29734 42.4538 8.39788C42.4123 8.49005 42.3709 8.58221 42.3294 8.67437C42.3129 8.71627 42.2963 8.75397 42.2797 8.78749C42.2631 8.81262 42.2465 8.84614 42.23 8.88803C42.2465 8.77911 42.2631 8.67438 42.2797 8.57383C42.3046 8.47329 42.3294 8.36856 42.3543 8.25963C42.3543 8.22612 42.3584 8.20098 42.3667 8.18423C42.3253 8.25125 42.288 8.32247 42.2548 8.39788C42.23 8.47329 42.201 8.54451 42.1678 8.61154C42.1512 8.64505 42.1346 8.67856 42.1181 8.71208C42.1098 8.73721 42.0973 8.76654 42.0807 8.80005L42.1056 8.69951C42.0393 8.82519 41.9523 8.92573 41.8445 9.00114C41.7284 9.24412 41.6082 9.49129 41.4839 9.74265C41.3679 9.98563 41.2477 10.2286 41.1233 10.4716C41.0819 10.5554 41.0404 10.635 40.999 10.7104C40.9575 10.7858 40.9161 10.8654 40.8746 10.9492L40.6135 11.4142C40.5223 11.5734 40.4311 11.7284 40.34 11.8792C40.2405 12.03 40.1327 12.1766 40.0167 12.3191L39.8301 12.5327L39.6312 12.7212L39.5193 12.8092L39.395 12.8721C39.3618 12.8888 39.3121 12.9056 39.2457 12.9223C39.2292 12.9307 39.2001 12.9349 39.1587 12.9349H39.0717L38.9722 12.8846L38.91 12.8092C38.8851 12.7757 38.8644 12.7254 38.8478 12.6584C38.8478 12.6249 38.8478 12.5998 38.8478 12.583C38.8395 12.5579 38.8354 12.5327 38.8354 12.5076C38.8354 12.4406 38.8395 12.3903 38.8478 12.3568C38.8561 12.1892 38.8893 12.0091 38.9473 11.8164C38.9722 11.7242 38.9971 11.6362 39.0219 11.5524C39.0468 11.4686 39.0758 11.3849 39.109 11.3011C39.1338 11.2089 39.1628 11.1251 39.196 11.0497C39.2292 10.9659 39.2623 10.8779 39.2955 10.7858C39.3618 10.6182 39.4322 10.4548 39.5069 10.2956C39.5815 10.1281 39.6602 9.96468 39.7431 9.80549C39.8094 9.65467 39.8923 9.49548 39.9918 9.32791L40.141 9.08912L40.2902 8.86289C40.3151 8.821 40.34 8.7833 40.3648 8.74978C40.3897 8.71627 40.4187 8.67856 40.4519 8.63667L40.6384 8.41045C40.6798 8.37693 40.7171 8.34342 40.7503 8.30991C40.7917 8.27639 40.8332 8.24288 40.8746 8.20936L41.0363 8.13395C41.086 8.1172 41.1192 8.10882 41.1357 8.10882C41.1523 8.10044 41.173 8.09625 41.1979 8.09625H41.2601C41.3264 8.09625 41.3803 8.12139 41.4217 8.17166C41.4632 8.21355 41.4798 8.26801 41.4715 8.33504C41.4715 8.40207 41.4507 8.45653 41.4093 8.49842C41.3679 8.54032 41.314 8.55707 41.2477 8.54869ZM42.3294 6.33674L42.6652 5.33131C42.7149 5.16374 42.7646 4.99616 42.8144 4.82859C42.8724 4.65264 42.9263 4.47669 42.976 4.30074C43.0258 4.13317 43.0755 3.9656 43.1252 3.79802C43.175 3.62207 43.2206 3.45031 43.262 3.28274L43.3117 3.11936C43.3117 3.1026 43.32 3.06908 43.3366 3.01881L43.3988 2.76745V2.75489L43.4858 2.40299C43.4858 2.39461 43.4858 2.39042 43.4858 2.39042C43.4941 2.39042 43.4983 2.38623 43.4983 2.37785C43.4983 2.36109 43.4983 2.35271 43.4983 2.35271C43.5065 2.34433 43.5107 2.33177 43.5107 2.31501L43.5231 2.27731C43.5231 2.26893 43.5231 2.26474 43.5231 2.26474C43.5314 2.25636 43.5356 2.24798 43.5356 2.2396L43.548 2.18933C43.6392 1.97987 43.7842 1.82905 43.9832 1.73689C44.1821 1.64472 44.3894 1.64472 44.6049 1.73689C44.8039 1.81229 44.9448 1.95054 45.0277 2.15163C45.1189 2.34434 45.1313 2.54542 45.065 2.75489L45.0525 2.79259L44.9531 3.10679L44.8412 3.45869C44.7997 3.57599 44.7583 3.69748 44.7168 3.82316C44.6837 3.94046 44.6464 4.05776 44.6049 4.17506C44.5303 4.41804 44.4557 4.65683 44.3811 4.89143C44.3065 5.12603 44.236 5.36482 44.1697 5.6078C44.0288 6.08538 43.8879 6.56296 43.7469 7.04055C43.606 7.51813 43.4734 7.9999 43.349 8.48586C43.2827 8.72883 43.2164 8.97182 43.1501 9.2148C43.0921 9.4494 43.034 9.68819 42.976 9.93117C42.9097 10.1741 42.8517 10.4171 42.8019 10.6601C42.7522 10.9031 42.7025 11.1461 42.6527 11.389C42.603 11.632 42.5574 11.875 42.5159 12.118C42.4745 12.3526 42.4372 12.5914 42.404 12.8344C42.3792 12.9517 42.3667 13.0648 42.3667 13.1737L42.603 12.7966C42.8765 12.361 43.1501 11.9085 43.4237 11.4393L44.207 10.0694C44.2733 9.95211 44.3355 9.839 44.3935 9.73008C44.4598 9.61278 44.5262 9.49548 44.5925 9.37818L44.9779 8.67437C45.0194 8.58221 45.0857 8.52356 45.1769 8.49842C45.2764 8.47329 45.3717 8.48586 45.4629 8.53613C45.5458 8.5864 45.5996 8.65762 45.6245 8.74978C45.6577 8.84195 45.6494 8.93411 45.5997 9.02628L45.2142 9.73008C45.1479 9.84738 45.0816 9.96468 45.0152 10.082C44.9572 10.1909 44.895 10.304 44.8287 10.4213C44.7044 10.6559 44.5759 10.8905 44.4433 11.1251C44.3106 11.3513 44.178 11.5818 44.0454 11.8164L43.2247 13.1988L42.7771 13.8775C42.7356 13.9361 42.6942 13.9906 42.6527 14.0409C42.6196 14.0995 42.5823 14.154 42.5408 14.2043C42.4994 14.2629 42.4579 14.3174 42.4165 14.3676C42.375 14.4263 42.3336 14.4849 42.2921 14.5436C42.2258 14.6274 42.1429 14.6735 42.0434 14.6818C41.944 14.6902 41.8528 14.6609 41.7699 14.5939C41.7036 14.5352 41.6621 14.4682 41.6456 14.3928C41.6041 14.242 41.5792 14.0995 41.5709 13.9655C41.5627 13.8984 41.5544 13.8272 41.5461 13.7518C41.5461 13.6848 41.5461 13.6178 41.5461 13.5507C41.5378 13.4167 41.5336 13.2868 41.5336 13.1611C41.5419 13.0271 41.5502 12.893 41.5585 12.7589C41.5834 12.2395 41.6331 11.7284 41.7077 11.2257C41.7657 10.7229 41.8404 10.2202 41.9315 9.71751L41.9813 9.37818C41.8818 9.58764 41.7823 9.79711 41.6829 10.0066C41.5834 10.2077 41.4756 10.4087 41.3596 10.6098C41.3181 10.6852 41.2767 10.7648 41.2352 10.8486C41.1938 10.924 41.1482 11.0036 41.0984 11.0874C41.057 11.1628 41.0114 11.2424 40.9617 11.3262C40.9202 11.4016 40.8746 11.477 40.8249 11.5524C40.7337 11.7116 40.6342 11.8708 40.5265 12.03C40.427 12.1808 40.3192 12.3316 40.2032 12.4825L40.0167 12.6961C39.9752 12.738 39.9379 12.7757 39.9048 12.8092C39.8716 12.8427 39.8343 12.8762 39.7928 12.9098L39.6561 13.0103L39.5069 13.0857L39.3203 13.1611C39.3038 13.1611 39.2872 13.1653 39.2706 13.1737C39.2457 13.1737 39.2209 13.1737 39.196 13.1737C39.1297 13.1737 39.0799 13.1695 39.0468 13.1611C38.9639 13.1276 38.91 13.0983 38.8851 13.0731C38.8188 13.0229 38.7774 12.981 38.7608 12.9475L38.6986 12.8218L38.6738 12.7212C38.6655 12.6793 38.6613 12.6458 38.6613 12.6207C38.6613 12.5872 38.6613 12.5579 38.6613 12.5327V12.3693C38.6779 12.252 38.6945 12.1515 38.7111 12.0677L38.7608 11.7786L38.9224 11.2382C38.9473 11.1461 38.9763 11.0581 39.0095 10.9743C39.0344 10.8905 39.0634 10.8067 39.0965 10.7229C39.1628 10.547 39.2292 10.3752 39.2955 10.2077C39.3618 10.0317 39.4322 9.85576 39.5069 9.67981L39.7431 9.16452L40.0167 8.64924C40.0415 8.60735 40.0664 8.56545 40.0913 8.52356C40.1161 8.47329 40.1452 8.42721 40.1783 8.38531C40.2363 8.28477 40.3027 8.19679 40.3773 8.12139C40.427 8.05436 40.4684 8.00409 40.5016 7.97057L40.6632 7.83232L40.7752 7.75692L40.9244 7.68151L41.0984 7.63124C41.115 7.63124 41.1316 7.63124 41.1482 7.63124C41.1731 7.62286 41.1938 7.61867 41.2104 7.61867H41.3223C41.5129 7.59353 41.6787 7.63124 41.8196 7.73178C41.9108 7.49718 41.9979 7.26677 42.0807 7.04055C42.1636 6.81432 42.2465 6.57972 42.3294 6.33674ZM41.1855 8.82519H41.1979C41.2062 8.82519 41.2104 8.821 41.2104 8.81262C41.2186 8.81262 41.2228 8.80843 41.2228 8.80005H41.1979L41.1233 8.83776L41.0363 8.88803L40.8622 9.02628L40.7006 9.20223C40.6425 9.26926 40.5845 9.33628 40.5265 9.40331C40.4767 9.46196 40.427 9.5248 40.3773 9.59183L40.0913 10.0191C40.0001 10.17 39.913 10.325 39.8301 10.4842C39.7473 10.635 39.6685 10.79 39.5939 10.9492C39.5525 11.0246 39.5151 11.1042 39.482 11.188C39.4488 11.2634 39.4157 11.343 39.3825 11.4267C39.3494 11.5105 39.3203 11.5943 39.2955 11.6781C39.2706 11.7535 39.2457 11.8331 39.2209 11.9169L39.1587 12.1683L39.1214 12.407V12.6207C39.138 12.6542 39.1463 12.671 39.1463 12.671H39.1711L39.2582 12.6333L39.3452 12.583L39.4323 12.5076C39.4903 12.4741 39.5483 12.4196 39.6063 12.3442C39.6395 12.3107 39.6685 12.2814 39.6934 12.2562C39.7182 12.2227 39.7431 12.1892 39.768 12.1557L40.0664 11.7284C40.1493 11.5943 40.2363 11.4435 40.3275 11.2759L40.5886 10.8109C40.6301 10.7355 40.6674 10.6601 40.7006 10.5847C40.742 10.5009 40.7834 10.4213 40.8249 10.3459C40.9161 10.1448 41.0073 9.94373 41.0984 9.74265C41.1896 9.54156 41.2808 9.33628 41.372 9.12682C41.3471 9.12682 41.3181 9.11844 41.285 9.10168C41.285 9.0933 41.285 9.08912 41.285 9.08912C41.2932 9.08074 41.2974 9.07236 41.2974 9.06398L41.3347 9.03884L41.3596 9.01371H41.3471C41.3388 9.01371 41.3347 9.01371 41.3347 9.01371C41.3347 9.00533 41.3306 9.00114 41.3223 9.00114L41.3969 8.83776H41.3223C41.2808 8.84614 41.2352 8.84195 41.1855 8.82519ZM41.1979 9.07655H41.2352C41.2518 9.07655 41.2601 9.07655 41.2601 9.07655C41.2684 9.06817 41.2767 9.06398 41.285 9.06398H41.2974C41.314 9.03046 41.3223 9.00952 41.3223 9.00114C41.314 9.00952 41.3057 9.01371 41.2974 9.01371C41.2725 9.01371 41.2477 9.02628 41.2228 9.05141C41.1565 9.08493 41.1026 9.12263 41.0611 9.16452C41.028 9.18128 40.9948 9.20642 40.9617 9.23993C40.9368 9.26507 40.9119 9.2902 40.8871 9.31534L40.5513 9.67981L40.2529 10.0945C40.1617 10.237 40.0747 10.3836 39.9918 10.5344C39.9006 10.6852 39.8177 10.8402 39.7431 10.9994C39.7017 11.0748 39.6644 11.1503 39.6312 11.2257C39.598 11.3011 39.5649 11.3807 39.5317 11.4645L39.3576 11.942L39.2955 12.1934L39.2582 12.4196V12.5327C39.2913 12.516 39.3162 12.4992 39.3328 12.4825C39.3659 12.4657 39.3908 12.4489 39.4074 12.4322C39.4323 12.407 39.4613 12.3819 39.4944 12.3568C39.5193 12.3316 39.5442 12.3023 39.569 12.2688L39.7182 12.0928C39.768 12.0258 39.8177 11.9588 39.8675 11.8918C39.9172 11.8164 39.9628 11.7409 40.0042 11.6655C40.054 11.5985 40.1037 11.5273 40.1534 11.4519C40.1949 11.3765 40.2363 11.3011 40.2778 11.2257L40.514 10.7606C40.5555 10.6852 40.5928 10.6098 40.6259 10.5344C40.6674 10.4506 40.7088 10.3669 40.7503 10.2831C40.8415 10.0904 40.9285 9.89765 41.0114 9.70494C41.1026 9.50386 41.1938 9.30277 41.285 9.10168C41.2601 9.10168 41.2311 9.0933 41.1979 9.07655ZM39.2706 12.6081V12.6207L39.2457 12.5956C39.2292 12.5788 39.2126 12.5704 39.196 12.5704H39.1711L39.1836 12.5579C39.1919 12.5579 39.2126 12.5495 39.2457 12.5327H39.2582C39.2582 12.5662 39.2623 12.5914 39.2706 12.6081ZM42.1678 8.28477V8.33504L42.1927 8.2345L42.1678 8.28477Z" fill="#242424"/>
<path d="M44.8634 12.2939C44.8468 12.3945 44.8344 12.495 44.8261 12.5956C44.8178 12.6961 44.8137 12.7925 44.8137 12.8846C44.8137 12.9349 44.8178 12.9852 44.8261 13.0354C44.8261 13.0773 44.8302 13.1192 44.8385 13.1611C44.8385 13.1946 44.8468 13.2281 44.8634 13.2617L44.8883 13.3496L44.9131 13.3999C44.9214 13.4083 44.9256 13.4167 44.9256 13.425H44.9877C45.0458 13.425 45.1121 13.4125 45.1867 13.3873C45.2199 13.3706 45.253 13.3496 45.2862 13.3245C45.3276 13.3077 45.3691 13.2868 45.4105 13.2617C45.4851 13.2114 45.5597 13.1527 45.6343 13.0857C45.7172 13.0187 45.796 12.9517 45.8706 12.8846C45.9452 12.8176 46.0198 12.7464 46.0944 12.671C46.169 12.5956 46.2395 12.516 46.3058 12.4322L46.7161 11.942C46.7824 11.8499 46.8446 11.7619 46.9026 11.6781C46.9689 11.5943 47.0353 11.5063 47.1016 11.4142L47.4746 10.8738C47.5907 10.6894 47.7067 10.5051 47.8228 10.3208C47.9388 10.1364 48.0507 9.94792 48.1585 9.75521L48.4818 9.17709L48.631 8.88803L48.7429 8.66181L48.7802 8.59897V8.5864C48.8382 8.4691 48.9253 8.39369 49.0413 8.36018C49.1574 8.31828 49.2734 8.32666 49.3895 8.38531C49.5055 8.43558 49.5801 8.51937 49.6133 8.63667C49.6547 8.75397 49.6506 8.87127 49.6009 8.98857L49.576 9.02628L49.4019 9.32791L49.2154 9.61697L49.0413 9.89346C49.0082 9.94373 48.9791 9.99401 48.9543 10.0443C48.9294 10.0945 48.9004 10.1406 48.8672 10.1825C48.7429 10.3752 48.6186 10.5679 48.4942 10.7606C48.3782 10.945 48.2538 11.1293 48.1212 11.3136C48.0549 11.4058 47.9885 11.5022 47.9222 11.6027C47.8642 11.6949 47.802 11.787 47.7357 11.8792L47.3378 12.4196C47.2715 12.5118 47.201 12.6039 47.1264 12.6961C47.0518 12.7799 46.9772 12.8679 46.9026 12.96C46.828 13.0522 46.7534 13.1402 46.6788 13.224C46.6042 13.3077 46.5213 13.3915 46.4301 13.4753C46.256 13.6596 46.0695 13.8188 45.8706 13.9529L45.7089 14.066L45.5224 14.1666L45.3235 14.242C45.282 14.2587 45.2447 14.2713 45.2116 14.2797C45.1701 14.288 45.1287 14.2922 45.0872 14.2922C45.0541 14.3006 45.0085 14.3048 44.9504 14.3048H44.8385C44.8302 14.3048 44.8261 14.3006 44.8261 14.2922C44.8178 14.2922 44.8095 14.2922 44.8012 14.2922C44.6935 14.2755 44.594 14.2461 44.5028 14.2043C44.4116 14.1456 44.3287 14.0786 44.2541 14.0032C44.221 13.9613 44.192 13.9236 44.1671 13.8901C44.1422 13.8565 44.1173 13.8188 44.0925 13.7769C44.0759 13.7351 44.0593 13.6973 44.0427 13.6638C44.0262 13.6387 44.0096 13.6052 43.993 13.5633L43.9308 13.3496C43.9143 13.2826 43.9018 13.2156 43.8935 13.1486C43.8852 13.0815 43.8769 13.0145 43.8687 12.9475C43.8521 12.8218 43.8438 12.6961 43.8438 12.5704C43.8355 12.4447 43.8355 12.3233 43.8438 12.206C43.8438 12.1389 43.8479 12.0803 43.8562 12.03C43.8562 11.9714 43.8562 11.9085 43.8562 11.8415L43.8935 11.4896C43.9184 11.2466 43.9516 11.012 43.993 10.7858C44.0262 10.5512 44.0718 10.3208 44.1298 10.0945C44.2293 9.61697 44.3702 9.16033 44.5525 8.72465C44.6023 8.60735 44.652 8.49423 44.7018 8.38531C44.7515 8.27639 44.8095 8.16328 44.8758 8.04598L44.9753 7.87003L45.0872 7.70665C45.1287 7.63962 45.1743 7.58097 45.224 7.53069C45.2654 7.47204 45.3152 7.41339 45.3732 7.35474C45.4312 7.27934 45.4934 7.22069 45.5597 7.17879C45.6012 7.14528 45.6385 7.11595 45.6716 7.09082C45.7131 7.0573 45.7628 7.02798 45.8208 7.00284C45.9203 6.94419 46.0447 6.89392 46.1939 6.85203C46.2104 6.85203 46.227 6.85203 46.2436 6.85203C46.2685 6.84365 46.2892 6.83946 46.3058 6.83946C46.3224 6.83108 46.3431 6.82689 46.368 6.82689H46.5047C46.5379 6.82689 46.5628 6.83108 46.5793 6.83946C46.6125 6.83946 46.6622 6.84784 46.7285 6.86459C46.828 6.88973 46.9316 6.93581 47.0394 7.00284C47.1389 7.07825 47.2176 7.14947 47.2757 7.2165C47.2922 7.23325 47.3047 7.2542 47.313 7.27934C47.3295 7.29609 47.342 7.31285 47.3503 7.32961L47.4124 7.43015L47.4995 7.63124L47.5368 7.79462L47.5616 7.94544C47.5699 7.98733 47.5741 8.02922 47.5741 8.07111C47.5741 8.11301 47.5741 8.1549 47.5741 8.19679C47.5741 8.34761 47.5616 8.49004 47.5368 8.6241C47.5202 8.69113 47.5036 8.75816 47.487 8.82519C47.4787 8.88384 47.4663 8.94249 47.4497 9.00114C47.4249 9.11006 47.3917 9.23155 47.3503 9.36561C47.3171 9.42426 47.2964 9.47872 47.2881 9.52899L47.2135 9.70494C47.1803 9.80549 47.1347 9.91441 47.0767 10.0317L47.0021 10.1951L46.9275 10.371C46.8114 10.6056 46.6747 10.8277 46.5172 11.0371C46.4757 11.0874 46.4343 11.1419 46.3928 11.2005C46.3514 11.2508 46.3058 11.3011 46.256 11.3513L46.1068 11.4896L45.9203 11.6278L45.7089 11.7409C45.6177 11.7828 45.5224 11.808 45.4229 11.8164H45.2489C45.1826 11.7996 45.1204 11.7786 45.0624 11.7535C45.0375 11.7535 45.0168 11.7451 45.0002 11.7284L44.9256 11.9923L44.8634 12.2939ZM45.3483 10.9115C45.3566 10.9366 45.3608 10.9617 45.3608 10.9869C45.3774 10.9785 45.3856 10.9701 45.3856 10.9617C45.3939 10.9534 45.4064 10.9408 45.4229 10.924C45.4893 10.8738 45.539 10.8151 45.5722 10.7481C45.6136 10.6894 45.6592 10.614 45.7089 10.5219C45.7504 10.4381 45.7835 10.3501 45.8084 10.2579C45.8333 10.1658 45.854 10.0736 45.8706 9.98144C45.8706 9.97306 45.8706 9.96468 45.8706 9.9563C45.8789 9.94792 45.883 9.93536 45.883 9.9186V9.88089L45.8954 9.84319L45.9203 9.67981L45.9576 9.36561C45.9576 9.34885 45.9576 9.34047 45.9576 9.34047C45.9659 9.3321 45.9701 9.31953 45.9701 9.30277L45.9328 9.37818C45.883 9.47034 45.8333 9.56251 45.7835 9.65467C45.7421 9.73846 45.7006 9.82643 45.6592 9.9186L45.5224 10.2077L45.4105 10.4967L45.3235 10.7104C45.3235 10.7523 45.3235 10.79 45.3235 10.8235C45.3318 10.8486 45.3401 10.8779 45.3483 10.9115Z" fill="#242424"/>
<path d="M49.8294 8.92573C49.8294 8.99276 49.8294 9.05979 49.8294 9.12682C49.8377 9.19385 49.846 9.26088 49.8543 9.32791C49.8709 9.47034 49.8958 9.61697 49.9289 9.76778C49.9621 9.91022 50.0035 10.0527 50.0533 10.1951C50.0947 10.3291 50.1361 10.4632 50.1776 10.5973C50.2273 10.7229 50.2771 10.8486 50.3268 10.9743C50.4346 10.8319 50.5382 10.6894 50.6377 10.547C50.7371 10.3962 50.8366 10.2454 50.9361 10.0945C51.0936 9.85995 51.2428 9.62535 51.3837 9.39075C51.5329 9.14777 51.678 8.90479 51.8189 8.66181C51.8769 8.56126 51.9598 8.49842 52.0676 8.47329C52.1837 8.43977 52.2873 8.45234 52.3785 8.51099C52.4779 8.56964 52.5442 8.65762 52.5774 8.77492C52.6106 8.88384 52.594 8.98857 52.5277 9.08912C52.3867 9.34047 52.2375 9.58764 52.08 9.83062C51.9308 10.0736 51.7733 10.3166 51.6075 10.5596C51.4583 10.7942 51.305 11.0246 51.1475 11.2508C50.99 11.477 50.8283 11.6991 50.6625 11.9169C50.6708 11.9755 50.675 12.0342 50.675 12.0928C50.6833 12.1431 50.6874 12.1976 50.6874 12.2562C50.6874 12.4741 50.6542 12.6961 50.5879 12.9223C50.5631 13.0229 50.5258 13.1192 50.476 13.2114C50.4346 13.3119 50.389 13.4083 50.3392 13.5005C50.2812 13.5926 50.2232 13.6764 50.1652 13.7518C50.1071 13.8272 50.045 13.8984 49.9786 13.9655C49.846 14.1163 49.7051 14.2462 49.5559 14.3551C49.4896 14.4221 49.4191 14.4808 49.3445 14.531C49.2699 14.5813 49.1911 14.6316 49.1082 14.6818L48.8844 14.8201C48.8513 14.8285 48.8098 14.8494 48.7601 14.8829C48.7269 14.8997 48.7062 14.9081 48.6979 14.9081L48.6606 14.9332L48.6233 14.9458C48.5238 14.996 48.4244 15.0044 48.3249 14.9709C48.2171 14.9374 48.1384 14.8704 48.0886 14.7698C48.0223 14.6525 48.0182 14.5394 48.0762 14.4305V14.4179C48.2005 14.1247 48.3415 13.8565 48.499 13.6136C48.5736 13.4879 48.6523 13.3622 48.7352 13.2365C48.8098 13.1108 48.8886 12.9894 48.9715 12.8721L49.5186 12.0803L49.4813 11.9923L49.4067 11.8289L49.3818 11.7912L49.3445 11.7284L49.2823 11.6153C49.1994 11.4561 49.1207 11.2969 49.0461 11.1377C48.9632 10.9785 48.8886 10.8151 48.8223 10.6475C48.6648 10.304 48.5446 9.95211 48.4617 9.59183C48.4451 9.49967 48.4285 9.40331 48.4119 9.30277C48.3954 9.20223 48.3829 9.10168 48.3746 9.00114C48.3663 8.94249 48.3622 8.88803 48.3622 8.83776C48.3622 8.78749 48.3622 8.73302 48.3622 8.67437C48.3622 8.61572 48.3663 8.55707 48.3746 8.49842C48.3746 8.43977 48.3788 8.38112 48.3871 8.32247C48.4036 8.25544 48.4202 8.18842 48.4368 8.12139C48.4451 8.05436 48.4617 7.98733 48.4865 7.9203L48.586 7.70665C48.6109 7.66475 48.6357 7.62705 48.6606 7.59353C48.6855 7.56002 48.7145 7.52232 48.7477 7.48042C48.8057 7.41339 48.8886 7.33799 48.9963 7.2542C49.1124 7.17879 49.2367 7.12433 49.3694 7.09082C49.4357 7.07406 49.5061 7.06568 49.5808 7.06568C49.6554 7.0573 49.73 7.06149 49.8046 7.07825C49.9289 7.10339 50.0533 7.14947 50.1776 7.2165L50.4636 7.43015C50.5879 7.52232 50.6584 7.64799 50.675 7.80719C50.6998 7.96638 50.6667 8.11301 50.5755 8.24707C50.5423 8.29734 50.5009 8.33923 50.4511 8.37274L49.8419 8.81262C49.8336 8.83776 49.8294 8.87546 49.8294 8.92573ZM49.9165 8.53613C49.9248 8.51937 49.9289 8.51099 49.9289 8.51099C49.9206 8.51099 49.9165 8.51518 49.9165 8.52356L49.8916 8.56126L49.9165 8.53613Z" fill="#242424"/>
<path d="M53.028 9.03884L53.0031 9.11425L52.9658 9.17709L52.9036 9.32791L52.8414 9.46615L52.7793 9.61697C52.7378 9.71751 52.6964 9.81805 52.6549 9.9186C52.6218 10.0108 52.5886 10.1071 52.5555 10.2077C52.514 10.3082 52.4767 10.4087 52.4435 10.5093C52.4104 10.6098 52.3772 10.7104 52.3441 10.8109L52.2446 11.1125L52.1576 11.4142L52.083 11.7158C52.0415 11.8164 52.0166 11.9169 52.0083 12.0174C51.9918 12.0845 51.9793 12.1473 51.971 12.206C51.9545 12.2562 51.942 12.3149 51.9337 12.3819L52.0457 12.2311L52.2446 11.9797L52.4311 11.7284L52.6301 11.477L52.8166 11.2131L53.0031 10.9617L53.3761 10.4339L53.5502 10.1825L53.7367 9.9186L53.8238 9.78035L53.9108 9.65467L54.0849 9.37818L54.1719 9.2525L54.2589 9.11425C54.3253 9.02209 54.3833 8.93411 54.433 8.85033C54.4911 8.75816 54.5449 8.666 54.5947 8.57383C54.661 8.47329 54.748 8.41045 54.8558 8.38531C54.9718 8.3518 55.0796 8.36437 55.1791 8.42302C55.2786 8.49004 55.3407 8.57802 55.3656 8.68694C55.3988 8.79586 55.3822 8.9006 55.3159 9.00114C55.3159 9.0179 55.3076 9.03465 55.291 9.05141C55.2247 9.14358 55.1584 9.23155 55.092 9.31534C55.0257 9.39075 54.9594 9.47453 54.8931 9.5667L54.7936 9.69238L54.7066 9.81805C54.6651 9.85995 54.6278 9.90603 54.5947 9.9563C54.5698 9.99819 54.5408 10.0401 54.5076 10.082L54.4206 10.2077L54.3211 10.3333L54.1346 10.5973L53.9481 10.8486L53.3885 11.6404L53.0155 12.1557L52.6425 12.6835C52.5762 12.7757 52.5099 12.8637 52.4435 12.9475C52.3855 13.0313 52.3234 13.1192 52.257 13.2114L52.1576 13.3496L52.0457 13.4879L51.9586 13.5759C51.9586 13.5759 51.9503 13.5842 51.9337 13.601L51.884 13.6261C51.8674 13.6429 51.855 13.6513 51.8467 13.6513C51.8384 13.6596 51.8343 13.6638 51.8343 13.6638L51.8218 13.6764H51.797C51.7887 13.6848 51.7804 13.689 51.7721 13.689C51.7638 13.689 51.7514 13.6932 51.7348 13.7015C51.7182 13.7015 51.7058 13.7015 51.6975 13.7015C51.6892 13.7099 51.6809 13.7141 51.6726 13.7141H51.5856L51.4239 13.6764C51.3576 13.6429 51.312 13.6136 51.2872 13.5884C51.2706 13.5717 51.254 13.5549 51.2374 13.5382C51.2208 13.5214 51.2043 13.5046 51.1877 13.4879L51.138 13.3999C51.1214 13.3664 51.1089 13.3371 51.1006 13.3119C51.0924 13.2868 51.0841 13.2659 51.0758 13.2491L51.0385 13.1234C51.0302 13.0815 51.026 13.0438 51.026 13.0103C51.0177 12.9768 51.0136 12.9433 51.0136 12.9098C51.0053 12.8427 51.0012 12.7799 51.0012 12.7212C51.0012 12.6626 51.0012 12.6039 51.0012 12.5453C51.0095 12.428 51.0177 12.3149 51.026 12.206C51.026 12.0887 51.0343 11.9714 51.0509 11.8541L51.1255 11.2005L51.2996 9.89346L51.3991 9.23993L51.4364 8.91317L51.4861 8.5864V8.57383C51.511 8.34761 51.6146 8.16328 51.797 8.02084C51.971 7.87841 52.17 7.82395 52.3938 7.85746C52.6176 7.8826 52.8 7.98733 52.9409 8.17166C53.0818 8.34761 53.1399 8.55289 53.115 8.78749C53.1067 8.82938 53.0943 8.87127 53.0777 8.91317C53.0611 8.95506 53.0445 8.99695 53.028 9.03884ZM52.3814 5.26847L52.4435 4.56467C52.4684 4.33007 52.5679 4.14155 52.742 3.99911C52.916 3.85667 53.115 3.79383 53.3388 3.81059C53.5709 3.82735 53.7574 3.92789 53.8984 4.11222C54.0393 4.28817 54.1014 4.48926 54.0849 4.71548C54.0683 4.8244 54.0434 4.91657 54.0103 4.99198L53.6994 5.64551C53.6165 5.82146 53.4839 5.94295 53.3015 6.00998C53.1191 6.06863 52.9409 6.05606 52.7668 5.97227C52.6342 5.90524 52.5306 5.80889 52.456 5.68321C52.3897 5.54915 52.3648 5.41091 52.3814 5.26847Z" fill="#242424"/>
<path d="M56.3309 7.958C56.3309 7.94962 56.335 7.94125 56.3433 7.93287L56.3558 7.89516V7.87003C56.3972 7.75273 56.4677 7.66894 56.5672 7.61867C56.6749 7.5684 56.7868 7.56421 56.9029 7.6061C57.0106 7.64799 57.0894 7.71921 57.1391 7.81976C57.1889 7.91192 57.1972 8.01246 57.164 8.12139L57.1391 8.17166H57.1516L57.1267 8.20936L55.8087 12.8092C55.9081 12.6333 56.0076 12.4615 56.1071 12.2939C56.2149 12.118 56.3226 11.942 56.4304 11.7661C56.7537 11.2298 57.0853 10.702 57.4251 10.1825C57.765 9.66305 58.1132 9.14777 58.4696 8.63667C58.5359 8.54451 58.6188 8.49004 58.7183 8.47329C58.8261 8.44815 58.9255 8.4691 59.0167 8.53613C59.0996 8.60316 59.1493 8.68694 59.1659 8.78749C59.1908 8.87965 59.1742 8.97181 59.1162 9.06398C58.4696 10.1113 57.8603 11.1796 57.2883 12.2688C56.9982 12.8134 56.7164 13.358 56.4428 13.9026C56.1776 14.4556 55.9206 15.0128 55.6719 15.5742C55.4149 16.1271 55.1704 16.6843 54.9383 17.2457C54.6979 17.8071 54.4658 18.3768 54.242 18.9549L53.6202 20.6767L53.3218 21.5439L53.185 21.9838L53.1229 22.1975V22.21L53.0607 22.4111L53.0483 22.4488C52.9737 22.6667 52.8369 22.8217 52.6379 22.9138C52.439 23.0144 52.2317 23.0269 52.0162 22.9515C51.8007 22.8761 51.6473 22.7379 51.5561 22.5368C51.4567 22.3357 51.4442 22.1262 51.5188 21.9084L51.5561 21.8078V21.7953L51.581 21.745L54.5528 13.1486C54.5279 13.1653 54.5031 13.1863 54.4782 13.2114C54.4533 13.2449 54.4243 13.2742 54.3912 13.2994L54.2917 13.3873L54.1673 13.4628C54.101 13.4963 54.0389 13.5172 53.9808 13.5256H53.7819L53.757 13.513H53.7446C53.6948 13.4963 53.6575 13.4795 53.6327 13.4628C53.5912 13.4544 53.5581 13.4334 53.5332 13.3999C53.5 13.3748 53.471 13.3454 53.4462 13.3119L53.384 13.224C53.3508 13.1569 53.3301 13.1067 53.3218 13.0731C53.3052 13.048 53.2969 13.0229 53.2969 12.9977C53.2969 12.9726 53.2928 12.9475 53.2845 12.9223C53.2762 12.8804 53.2721 12.8385 53.2721 12.7966C53.2638 12.7548 53.2596 12.7129 53.2596 12.671V12.4447C53.2596 12.4029 53.2638 12.3652 53.2721 12.3316C53.2721 12.2981 53.2721 12.2646 53.2721 12.2311C53.2804 12.1557 53.2887 12.0845 53.2969 12.0174C53.3052 11.942 53.3177 11.8708 53.3343 11.8038L53.4089 11.389C53.4254 11.322 53.442 11.255 53.4586 11.188C53.4669 11.1209 53.4793 11.0539 53.4959 10.9869L53.5954 10.5847C53.6285 10.4506 53.6658 10.3208 53.7073 10.1951C53.7487 10.061 53.7902 9.92698 53.8316 9.79292C53.8814 9.65886 53.9311 9.52899 53.9808 9.40331C54.0306 9.27763 54.0886 9.14777 54.1549 9.01371L54.3663 8.6241L54.5031 8.42302C54.5196 8.3895 54.5445 8.36018 54.5777 8.33504C54.6025 8.30153 54.6274 8.26382 54.6523 8.22193C54.6854 8.18842 54.7186 8.1549 54.7518 8.12139C54.7849 8.08787 54.8222 8.05017 54.8637 8.00828L55.0253 7.89516C55.0585 7.87841 55.0916 7.86165 55.1248 7.84489C55.1579 7.81976 55.1994 7.79881 55.2491 7.78205C55.2906 7.7653 55.3445 7.74854 55.4108 7.73178C55.4356 7.7234 55.4688 7.71921 55.5102 7.71921H55.5476L55.5724 7.70665H55.6097C55.6843 7.70665 55.7714 7.71921 55.8708 7.74435L56.0201 7.78205L56.1693 7.85746L56.3185 7.97057V7.98314L56.3309 7.958ZM55.361 9.73008C55.2947 9.82224 55.2284 9.9186 55.1621 10.0191C55.0958 10.1197 55.0295 10.2244 54.9631 10.3333C54.8968 10.4423 54.8346 10.5512 54.7766 10.6601C54.7186 10.7606 54.6606 10.8696 54.6025 10.9869L54.4285 11.3136L54.2793 11.6655C54.2295 11.7828 54.1839 11.9001 54.1425 12.0174C54.101 12.1264 54.0679 12.2395 54.043 12.3568L54.0057 12.5202C53.9974 12.5537 53.9933 12.583 53.9933 12.6081C53.985 12.6333 53.9808 12.6584 53.9808 12.6835V12.7966C54.0223 12.7715 54.0554 12.738 54.0803 12.6961L54.3041 12.4196L54.5155 12.118C54.5818 12.0091 54.6481 11.9001 54.7145 11.7912C54.7725 11.6823 54.8347 11.5692 54.901 11.4519L55.2367 10.7606C55.3279 10.5679 55.4149 10.371 55.4978 10.17C55.589 9.96049 55.676 9.75522 55.7589 9.55413C55.6595 9.52061 55.589 9.49129 55.5476 9.46615L55.361 9.73008ZM53.8814 12.8595C53.8896 12.8595 53.8938 12.8553 53.8938 12.8469C53.8855 12.8553 53.8814 12.8595 53.8814 12.8595Z" fill="#242424"/>
<path d="M59.8708 8.17166L59.2988 9.32791L59.0377 9.88089L59.1372 9.74265C59.2035 9.65886 59.2698 9.57926 59.3361 9.50386C59.4107 9.42007 59.4853 9.33628 59.5599 9.2525C59.6345 9.16871 59.705 9.08912 59.7713 9.01371C59.8459 8.92992 59.9288 8.84614 60.02 8.76235L60.1443 8.63667L60.2811 8.51099C60.306 8.50261 60.335 8.48167 60.3682 8.44815L60.4801 8.37274L60.5422 8.33504L60.6417 8.29734L60.6541 8.28477H60.6666L60.6914 8.2722H60.7039C60.7122 8.26382 60.7205 8.25963 60.7288 8.25963L60.7536 8.24707H60.8034C60.8531 8.23031 60.907 8.22612 60.965 8.2345H61.0147C61.0313 8.24288 61.0438 8.24707 61.052 8.24707H61.0893C61.0976 8.24707 61.1059 8.25125 61.1142 8.25963C61.1225 8.25963 61.1308 8.25963 61.1391 8.25963C61.1722 8.26801 61.222 8.28896 61.2883 8.32247L61.4002 8.39788C61.4334 8.42302 61.4582 8.44815 61.4748 8.47329C61.4997 8.49842 61.5204 8.52356 61.537 8.54869C61.5701 8.58221 61.595 8.6241 61.6116 8.67437C61.6199 8.69113 61.6282 8.70789 61.6365 8.72465C61.6447 8.73303 61.6489 8.74559 61.6489 8.76235L61.6986 8.92573L61.7235 9.03884L61.7484 9.2525V9.44102C61.7484 9.50805 61.7484 9.57089 61.7484 9.62954C61.7484 9.67981 61.7442 9.73427 61.7359 9.79292L61.7111 10.1197L61.624 10.7606L61.5494 11.3765V11.389L61.5867 11.3262C61.6447 11.2424 61.7028 11.1628 61.7608 11.0874C61.8188 11.0036 61.8727 10.9157 61.9224 10.8235C62.0385 10.6475 62.1463 10.4716 62.2457 10.2956C62.3535 10.1197 62.4613 9.93954 62.569 9.75521L62.8674 9.20223L63.0042 8.91317L63.0788 8.77492L63.141 8.63667C63.1907 8.51937 63.2736 8.43977 63.3897 8.39788C63.5057 8.35599 63.6218 8.36437 63.7378 8.42302C63.8539 8.47329 63.9327 8.55707 63.9741 8.67437C64.0155 8.7833 64.0073 8.89641 63.9492 9.01371C63.9492 9.03047 63.9451 9.04303 63.9368 9.05141C63.9368 9.05141 63.9368 9.0556 63.9368 9.06398H63.9244L63.2778 10.17C63.1617 10.3543 63.0498 10.5386 62.9421 10.7229C62.8343 10.8989 62.7224 11.079 62.6063 11.2634L62.2582 11.8164C62.225 11.8582 62.1918 11.9043 62.1587 11.9546C62.1338 11.9965 62.1007 12.0384 62.0592 12.0803C62.0426 12.1054 62.0261 12.1306 62.0095 12.1557C61.9929 12.1808 61.9763 12.2018 61.9597 12.2185L61.8354 12.3693L61.6738 12.5076C61.6489 12.5411 61.6116 12.5704 61.5618 12.5956L61.4624 12.6458L61.3132 12.6835C61.2634 12.6835 61.2261 12.6793 61.2013 12.671C61.1764 12.671 61.1391 12.6626 61.0893 12.6458L60.9899 12.6081C60.9567 12.5746 60.9318 12.5537 60.9153 12.5453C60.8821 12.5202 60.849 12.4825 60.8158 12.4322L60.7661 12.3442L60.679 12.0803L60.6417 11.8918C60.6417 11.8582 60.6376 11.8289 60.6293 11.8038C60.6293 11.7703 60.6293 11.7368 60.6293 11.7032C60.621 11.6446 60.6127 11.5901 60.6044 11.5399C60.6044 11.4812 60.6044 11.4226 60.6044 11.3639L60.5671 10.7104L60.5298 10.082V10.0443L60.4676 10.1071L59.6097 10.9994C59.3195 11.3011 59.0335 11.6111 58.7517 11.9295C58.4699 12.2395 58.1963 12.5537 57.931 12.8721L57.5456 13.3622L57.3964 13.5633L57.3093 13.7141L57.2596 13.8021C57.2596 13.8105 57.2513 13.823 57.2347 13.8398L57.1974 13.9026L57.1726 13.9403L57.1228 13.9906L57.0731 14.0283C57.0731 14.0367 57.0606 14.0451 57.0358 14.0534C57.0192 14.0702 57.015 14.0744 57.0233 14.066C57.0316 14.0576 57.0275 14.0618 57.0109 14.0786C56.9777 14.0953 56.9404 14.1079 56.899 14.1163C56.899 14.1163 56.8824 14.1205 56.8493 14.1288C56.8161 14.1372 56.7747 14.1372 56.7249 14.1288C56.6752 14.1288 56.6254 14.1121 56.5757 14.0786C56.5177 14.0534 56.4638 14.0074 56.4141 13.9403C56.3477 13.823 56.3229 13.7392 56.3395 13.689C56.3477 13.6471 56.3477 13.6178 56.3395 13.601L56.3643 13.5256C56.3643 13.5088 56.3685 13.5005 56.3768 13.5005V13.4753C56.3933 13.4586 56.4016 13.4502 56.4016 13.4502V13.425L56.4141 13.4125L56.4514 13.3622C56.4596 13.3454 56.4679 13.3287 56.4762 13.3119C56.4845 13.3036 56.4928 13.291 56.5011 13.2742L56.5508 13.2114L56.5757 13.1737V13.1611L56.6379 13.0229L56.8617 12.4447C56.9363 12.252 57.0109 12.0593 57.0855 11.8666C57.1601 11.6655 57.2306 11.4645 57.2969 11.2634C57.3632 11.0623 57.4295 10.8612 57.4958 10.6601C57.5539 10.459 57.616 10.2579 57.6824 10.0568C57.7487 9.85576 57.8108 9.65467 57.8689 9.45358C57.9269 9.2525 57.9849 9.05141 58.0429 8.85033C58.101 8.64086 58.1549 8.43558 58.2046 8.2345C58.2543 8.02503 58.3041 7.81976 58.3538 7.61867C58.4035 7.39245 58.5237 7.22069 58.7144 7.10339C58.9051 6.97771 59.1082 6.94 59.3237 6.99027C59.5392 7.04055 59.7091 7.16204 59.8335 7.35474C59.9578 7.54745 59.9951 7.75273 59.9454 7.97057L59.8708 8.17166Z" fill="#242424"/>
</g>
</svg>
