<svg width="23" height="24" viewBox="0 0 23 24" fill="none" xmlns="http://www.w3.org/2000/svg">
<path d="M2.3 0C1.69 0 1.10499 0.252856 0.673654 0.702944C0.242321 1.15303 0 1.76348 0 2.4V16.8C0 17.4365 0.242321 18.047 0.673654 18.4971C1.10499 18.9471 1.69 19.2 2.3 19.2H6.9V22.8C6.9 23.1183 7.02116 23.4235 7.23683 23.6485C7.45249 23.8736 7.745 24 8.05 24H8.625C8.9125 24 9.2 23.88 9.43 23.652L13.685 19.2H20.7C21.31 19.2 21.895 18.9471 22.3263 18.4971C22.7577 18.047 23 17.4365 23 16.8V2.4C23 1.76348 22.7577 1.15303 22.3263 0.702944C21.895 0.252856 21.31 0 20.7 0H2.3ZM2.3 2.4H20.7V16.8H12.742L9.2 20.496V16.8H2.3V2.4ZM11.7185 4.2C10.695 4.2 9.8785 4.416 9.2575 4.848C8.625 5.28 8.303 6 8.3605 6.828H10.626C10.626 6.492 10.741 6.24 10.925 6.072C11.155 5.904 11.408 5.82 11.7185 5.82C12.075 5.82 12.3855 5.916 12.5925 6.132C12.7995 6.336 12.903 6.6 12.903 6.96C12.903 7.296 12.811 7.596 12.65 7.848C12.4545 8.112 12.213 8.328 11.914 8.496C11.316 8.88 10.925 9.216 10.6835 9.504C10.465 9.792 10.35 10.2 10.35 10.8H12.65C12.65 10.464 12.7075 10.2 12.811 9.984C12.9145 9.78 13.11 9.6 13.409 9.42C13.938 9.168 14.375 8.832 14.7085 8.4C15.042 7.956 15.2145 7.488 15.2145 6.96C15.2145 6.12 14.904 5.448 14.283 4.944C13.662 4.452 12.7995 4.2 11.7185 4.2ZM10.35 12V14.4H12.65V12H10.35Z" fill="#474A5C"/>
</svg>
