<svg width="12" height="14" viewBox="0 0 12 14" fill="none" xmlns="http://www.w3.org/2000/svg">
<path d="M10.5882 9.8V5.95C10.5882 3.801 9.07765 2.002 7.05882 1.526V1.05C7.05882 0.771523 6.94727 0.504451 6.7487 0.307538C6.55013 0.110625 6.28082 0 6 0C5.71918 0 5.44987 0.110625 5.2513 0.307538C5.05273 0.504451 4.94118 0.771523 4.94118 1.05V1.526C2.91529 2.002 1.41176 3.801 1.41176 5.95V9.8L0 11.2V11.9H12V11.2L10.5882 9.8ZM6 14C6.37442 14 6.73351 13.8525 6.99827 13.5899C7.26303 13.3274 7.41177 12.9713 7.41177 12.6H4.58824C4.58824 12.9713 4.73697 13.3274 5.00173 13.5899C5.26649 13.8525 5.62558 14 6 14Z" fill="#474A5C"/>
</svg>
