<svg width="23" height="17" viewBox="0 0 23 17" fill="none" xmlns="http://www.w3.org/2000/svg">
<path d="M12.7305 7.2647C13.4291 6.3028 13.8047 5.14958 13.8047 3.96671C13.8047 2.78384 13.4291 1.63062 12.7305 0.668724C13.3843 0.228942 14.1584 -0.00428414 14.95 5.95893e-05C16.0175 5.95893e-05 17.0413 0.417974 17.7961 1.16187C18.5509 1.90576 18.975 2.91469 18.975 3.96671C18.975 5.01873 18.5509 6.02767 17.7961 6.77156C17.0413 7.51545 16.0175 7.93337 14.95 7.93337C14.1584 7.93771 13.3843 7.70448 12.7305 7.2647ZM4.025 3.96671C4.025 3.18218 4.26106 2.41527 4.70333 1.76296C5.14561 1.11065 5.77423 0.60223 6.5097 0.302003C7.24517 0.00177668 8.05447 -0.0767763 8.83524 0.0762779C9.61601 0.229332 10.3332 0.607119 10.8961 1.16187C11.459 1.71661 11.8424 2.4234 11.9977 3.19286C12.153 3.96231 12.0733 4.75987 11.7686 5.48468C11.464 6.2095 10.9481 6.829 10.2862 7.26486C9.62426 7.70073 8.84607 7.93337 8.05 7.93337C6.9825 7.93337 5.95873 7.51545 5.2039 6.77156C4.44906 6.02767 4.025 5.01873 4.025 3.96671ZM6.325 3.96671C6.325 4.30294 6.42617 4.63162 6.61572 4.91118C6.80526 5.19074 7.07467 5.40863 7.38987 5.5373C7.70507 5.66597 8.05191 5.69964 8.38653 5.63404C8.72115 5.56845 9.02851 5.40654 9.26976 5.16879C9.511 4.93104 9.67529 4.62813 9.74185 4.29837C9.80841 3.9686 9.77425 3.62679 9.64369 3.31615C9.51313 3.00552 9.29203 2.74002 9.00836 2.55322C8.72468 2.36642 8.39117 2.26672 8.05 2.26672C7.5925 2.26672 7.15374 2.44582 6.83024 2.76464C6.50674 3.08345 6.325 3.51585 6.325 3.96671ZM16.1 14.7333V17H0V14.7333C0 14.7333 0 10.2 8.05 10.2C16.1 10.2 16.1 14.7333 16.1 14.7333ZM13.8 14.7333C13.639 13.8493 12.2705 12.4667 8.05 12.4667C3.8295 12.4667 2.3805 13.9513 2.3 14.7333H13.8ZM16.0425 10.2C16.7473 10.7403 17.3236 11.4261 17.7309 12.2093C18.1382 12.9924 18.3666 13.8539 18.4 14.7333V17H23V14.7333C23 14.7333 23 10.6194 16.031 10.2H16.0425Z" fill="#474A5C"/>
</svg>
